<svg xmlns="http://www.w3.org/2000/svg" xmlns:xlink="http://www.w3.org/1999/xlink">

<symbol id="github" fill-rule="evenodd" clip-rule="evenodd" stroke-linejoin="round" stroke-miterlimit="1.414"><path d="M8 0C3.58 0 0 3.582 0 8c0 3.535 2.292 6.533 5.47 7.59.4.075.547-.172.547-.385 0-.19-.007-.693-.01-1.36-2.226.483-2.695-1.073-2.695-1.073-.364-.924-.89-1.17-.89-1.17-.725-.496.056-.486.056-.486.803.056 1.225.824 1.225.824.714 1.223 1.873.87 2.33.665.072-.517.278-.87.507-1.07-1.777-.2-3.644-.888-3.644-3.953 0-.873.31-1.587.823-2.147-.09-.202-.36-1.015.07-2.117 0 0 .67-.215 2.2.82.64-.178 1.32-.266 2-.27.68.004 1.36.092 2 .27 1.52-1.035 2.19-.82 2.19-.82.43 1.102.16 1.915.08 2.117.51.56.82 1.274.82 2.147 0 3.073-1.87 3.75-3.65 3.947.28.24.54.73.54 1.48 0 1.07-.01 1.93-.01 2.19 0 .21.14.46.55.38C13.71 14.53 16 11.53 16 8c0-4.418-3.582-8-8-8"/></symbol>

<symbol id="instagram" fill-rule="evenodd" clip-rule="evenodd" stroke-linejoin="round" stroke-miterlimit="1.414"><path d="M8 0C5.827 0 5.555.01 4.702.048 3.85.088 3.27.222 2.76.42c-.526.204-.973.478-1.417.923-.445.444-.72.89-.923 1.417-.198.51-.333 1.09-.372 1.942C.008 5.555 0 5.827 0 8s.01 2.445.048 3.298c.04.852.174 1.433.372 1.942.204.526.478.973.923 1.417.444.445.89.72 1.417.923.51.198 1.09.333 1.942.372.853.04 1.125.048 3.298.048s2.445-.01 3.298-.048c.852-.04 1.433-.174 1.942-.372.526-.204.973-.478 1.417-.923.445-.444.72-.89.923-1.417.198-.51.333-1.09.372-1.942.04-.853.048-1.125.048-3.298s-.01-2.445-.048-3.298c-.04-.852-.174-1.433-.372-1.942-.204-.526-.478-.973-.923-1.417-.444-.445-.89-.72-1.417-.923-.51-.198-1.09-.333-1.942-.372C10.445.008 10.173 0 8 0zm0 1.44c2.136 0 2.39.01 3.233.048.78.036 1.203.166 1.485.276.374.145.64.318.92.598.28.28.453.546.598.92.11.282.24.705.276 1.485.038.844.047 1.097.047 3.233s-.01 2.39-.05 3.233c-.04.78-.17 1.203-.28 1.485-.15.374-.32.64-.6.92-.28.28-.55.453-.92.598-.28.11-.71.24-1.49.276-.85.038-1.1.047-3.24.047s-2.39-.01-3.24-.05c-.78-.04-1.21-.17-1.49-.28-.38-.15-.64-.32-.92-.6-.28-.28-.46-.55-.6-.92-.11-.28-.24-.71-.28-1.49-.03-.84-.04-1.1-.04-3.23s.01-2.39.04-3.24c.04-.78.17-1.21.28-1.49.14-.38.32-.64.6-.92.28-.28.54-.46.92-.6.28-.11.7-.24 1.48-.28.85-.03 1.1-.04 3.24-.04zm0 2.452c-2.27 0-4.108 1.84-4.108 4.108 0 2.27 1.84 4.108 4.108 4.108 2.27 0 4.108-1.84 4.108-4.108 0-2.27-1.84-4.108-4.108-4.108zm0 6.775c-1.473 0-2.667-1.194-2.667-2.667 0-1.473 1.194-2.667 2.667-2.667 1.473 0 2.667 1.194 2.667 2.667 0 1.473-1.194 2.667-2.667 2.667zm5.23-6.937c0 .53-.43.96-.96.96s-.96-.43-.96-.96.43-.96.96-.96.96.43.96.96z"/></symbol>

<symbol id="linkedin" fill-rule="evenodd" clip-rule="evenodd" stroke-linejoin="round" stroke-miterlimit="1.414"><path d="M13.632 13.635h-2.37V9.922c0-.886-.018-2.025-1.234-2.025-1.235 0-1.424.964-1.424 1.96v3.778h-2.37V6H8.51v1.04h.03c.318-.6 1.092-1.233 2.247-1.233 2.4 0 2.845 1.58 2.845 3.637v4.188zM3.558 4.955c-.762 0-1.376-.617-1.376-1.377 0-.758.614-1.375 1.376-1.375.76 0 1.376.617 1.376 1.375 0 .76-.617 1.377-1.376 1.377zm1.188 8.68H2.37V6h2.376v7.635zM14.816 0H1.18C.528 0 0 .516 0 1.153v13.694C0 15.484.528 16 1.18 16h13.635c.652 0 1.185-.516 1.185-1.153V1.153C16 .516 15.467 0 14.815 0z" fill-rule="nonzero"/></symbol>

<symbol id="rss" fill-rule="evenodd" clip-rule="evenodd" stroke-linejoin="round" stroke-miterlimit="1.414"><path d="M12.8 16C12.8 8.978 7.022 3.2 0 3.2V0c8.777 0 16 7.223 16 16h-3.2zM2.194 11.61c1.21 0 2.195.985 2.195 2.196 0 1.21-.99 2.194-2.2 2.194C.98 16 0 15.017 0 13.806c0-1.21.983-2.195 2.194-2.195zM10.606 16h-3.11c0-4.113-3.383-7.497-7.496-7.497v-3.11c5.818 0 10.606 4.79 10.606 10.607z"/></symbol>

<symbol id="stackoverflow" class="svg-icon" fill-rule="evenodd" clip-rule="evenodd" stroke-linejoin="round" stroke-miterlimit="1.414"><path d="M12.658 14.577v-4.27h1.423V16H1.23v-5.693h1.42v4.27h10.006zm-8.583-1.423h7.16V11.73h-7.16v1.424zm.173-3.235l6.987 1.46.3-1.38L4.55 8.54l-.302 1.38zm.906-3.37l6.47 3.02.602-1.3-6.47-3.02-.602 1.29zm1.81-3.19l5.478 4.57.906-1.08L7.87 2.28l-.9 1.078zM10.502 0L9.338.863l4.27 5.735 1.164-.862L10.5 0z"/></symbol>

<symbol id="youtube" fill-rule="evenodd" clip-rule="evenodd" stroke-linejoin="round" stroke-miterlimit="1.414"><path d="M0 7.345c0-1.294.16-2.59.16-2.59s.156-1.1.636-1.587c.608-.637 1.408-.617 1.764-.684C3.84 2.36 8 2.324 8 2.324s3.362.004 5.6.166c.314.038.996.04 1.604.678.48.486.636 1.588.636 1.588S16 6.05 16 7.346v1.258c0 1.296-.16 2.59-.16 2.59s-.156 1.102-.636 1.588c-.608.638-1.29.64-1.604.678-2.238.162-5.6.166-5.6.166s-4.16-.037-5.44-.16c-.356-.067-1.156-.047-1.764-.684-.48-.487-.636-1.587-.636-1.587S0 9.9 0 8.605v-1.26zm6.348 2.73V5.58l4.323 2.255-4.32 2.24z"/></symbol>

<symbol id="telegram" fill-rule="evenodd" clip-rule="evenodd" stroke-linejoin="round" stroke-miterlimit="1.414" viewBox="0 0 1792 1792">
        <path d="M1189 1307l147-693q9-44-10.5-63t-51.5-7l-864 333q-29 11-39.5 25t-2.5 26.5 32 19.5l221 69 513-323q21-14 32-6 7 5-4 15l-415 375-16 228q23 0 45-22l108-104 224 165q64 36 81-38zm603-411q0 182-71 348t-191 286-286 191-348 71-348-71-286-191-191-286-71-348 71-348 191-286 286-191 348-71 348 71 286 191 191 286 71 348z"/>
</symbol>

<symbol id="name" fill-rule="evenodd" clip-rule="evenodd" stroke-linejoin="round" stroke-miterlimit="1.414" viewBox="0 0 450 600">
<path d="m220.25 276.625c35.660156-.03125 64.535156-28.96875 64.5-64.625-.03125-35.65625-28.96875-64.535156-64.628906-64.5-35.652344.035156-64.53125 28.96875-64.496094 64.625.113281 35.625 29 64.453125 64.625 64.5zm0-104.125c21.882812 0 39.625 17.738281 39.625 39.625 0 21.882812-17.742188 39.625-39.625 39.625-21.886719 0-39.625-17.742188-39.625-39.625.003906-21.882812 17.746094-39.621094 39.625-39.625zm0 0"/><path d="m133.5 415.75h173.496094c6.902344-.015625 12.480468-5.601562 12.5-12.5 0-28.25-10.246094-54.25-28.996094-73.375-18.546875-18.796875-43.847656-29.375-70.25-29.375s-51.703125 10.578125-70.25 29.375c-18.75 19.125-29 45.125-29 73.375.019531 6.898438 5.601562 12.484375 12.5 12.5zm34.375-68.375c13.835938-13.996094 32.695312-21.875 52.375-21.875 19.675781 0 38.539062 7.878906 52.371094 21.875 11.472656 11.835938 18.835937 27.039062 21.003906 43.375h-146.75c2.140625-16.34375 9.507812-31.5625 21-43.375zm0 0"/><path d="m382.75 42.5h-112.5v-30c-.019531-6.894531-5.605469-12.4804688-12.5-12.5h-75c-6.894531.0195312-12.480469 5.605469-12.5 12.5v30h-112.5c-34.511719.015625-62.484375 27.988281-62.5 62.5v430c.015625 34.511719 27.988281 62.484375 62.5 62.5h325c34.511719-.015625 62.484375-27.988281 62.5-62.5v-430c-.015625-34.511719-27.988281-62.484375-62.5-62.5zm-187.5-17.5h50v50h-50zm225 510c-.058594 20.683594-16.816406 37.441406-37.5 37.5h-325c-20.683594-.058594-37.441406-16.816406-37.5-37.5v-430c.058594-20.683594 16.816406-37.441406 37.5-37.5h112.5v20c.019531 6.894531 5.605469 12.480469 12.5 12.5h75c6.894531-.019531 12.480469-5.605469 12.5-12.5v-20h112.5c20.683594.058594 37.441406 16.816406 37.5 37.5zm0 0"/><path d="m355.5 505h-270.5c-6.902344 0-12.5 5.59375-12.5 12.5s5.597656 12.5 12.5 12.5h270.625c6.90625-.035156 12.472656-5.660156 12.4375-12.5625-.035156-6.90625-5.660156-12.472656-12.5625-12.4375zm0 0"/><path d="m147.5 450c-6.902344 0-12.5 5.59375-12.5 12.5s5.597656 12.5 12.5 12.5h145.625c6.90625 0 12.5-5.59375 12.5-12.5s-5.59375-12.5-12.5-12.5zm0 0"/>
</symbol>

<symbol id="birth" fill-rule="evenodd" clip-rule="evenodd" stroke-linejoin="round" stroke-miterlimit="1.414" viewBox="0 0 500 450">
<path d="m194.492188 109.507812c2.523437 0 4.902343-1.191406 6.410156-3.214843 1.511718-2.023438 1.980468-4.636719 1.261718-7.058594-5.734374-19.582031-15.644531-37.6875-29.054687-53.0625-10.804687-11.496094-26.886719-16.417969-42.273437-12.9375-2.125.8125-3.800782 2.492187-4.613282 4.617187-.441406 1.195313-.769531 2.429688-.976562 3.6875-.246094 1.492188-.378906 3-.402344 4.511719v.128907c.097656 12.757812 5.238281 24.960937 14.304688 33.941406 15.375 13.398437 33.46875 23.304687 53.039062 29.035156.75.222656 1.523438.34375 2.304688.351562zm-44-40.714843c-3.175782-3.179688-5.667969-6.980469-7.328126-11.160157v-.078124c-.351562-.886719-.65625-1.777344-.917968-2.632813-.136719-.464844-.234375-.902344-.351563-1.359375-.121093-.457031-.226562-.800781-.304687-1.199219-.082032-.402343-.097656-.5625-.152344-.847656-.234375-1.195313-.398438-2.402344-.488281-3.617187 7.890625.597656 15.300781 4.003906 20.894531 9.601562 7.953125 8.992188 14.363281 19.238281 18.96875 30.328125-11.101562-4.621094-21.363281-11.054687-30.359375-19.035156zm0 0"/><path d="m440.011719 115.027344h-123.488281c5.339843-3.648438 10.355468-7.753906 14.984374-12.265625 28.617188-28.703125 29.554688-72.222657 11.273438-90.503907s-61.785156-17.359374-90.519531 11.289063c-11.75 12.789063-21.296875 27.4375-28.25 43.351563-6.953125-15.925782-16.507813-30.582032-28.269531-43.375-28.703126-28.617188-72.21875-29.554688-90.503907-11.273438-18.289062 18.28125-17.34375 61.800781 11.277344 90.511719 4.632813 4.511719 9.648437 8.617187 14.984375 12.265625h-123.488281c-4.417969 0-8.0000002 3.582031-8.0000002 8v80c0 4.417968 3.5820312 8 8.0000002 8h16v232c.027343 22.078125 17.921875 39.972656 40 40h320c22.082031-.027344 39.976562-17.921875 40-40v-232h16c4.417969 0 8-3.582032 8-8v-80c0-4.417969-3.582031-8-8-8zm-176.429688-80.175782c22.992188-22.921874 56.527344-22.65625 67.894531-11.289062 11.367188 11.367188 11.640626 44.886719-11.28125 67.886719-10.496093 9.703125-22.480468 17.660156-35.496093 23.578125h-47.804688c0-.167969 0-.351563 0-.519532 0-1.824218-.136719-3.671874-.3125-5.53125-.066406-.613281-.136719-1.222656-.207031-1.847656-.183594-1.535156-.410156-3.066406-.683594-4.589844-.085937-.535156-.175781-1.074218-.269531-1.601562-.382813-1.992188-.800781-3.953125-1.28125-5.847656-.0625-.273438-.136719-.511719-.199219-.800782-.425781-1.65625-.863281-3.199218-1.3125-4.796874-.0625-.21875-.121094-.457032-.183594-.675782 6.554688-19.9375 17.15625-38.3125 31.136719-53.964844zm-7.570312 160.175782h-64v-64h64zm-128.175781-103.570313c-22.925782-23-22.65625-56.519531-11.285157-67.894531 11.367188-11.375 44.886719-11.640625 67.871094 11.265625 14.554687 16.304687 25.464844 35.53125 32 56.390625.902344 2.808594 1.597656 5.503906 2.253906 8.121094.183594.75.335938 1.476562.496094 2.214844.433594 1.953124.78125 3.816406 1.042969 5.601562.085937.605469.199218 1.230469.269531 1.820312.253906 1.996094.390625 4.007813.410156 6.019532h-57.570312c-13.007813-5.90625-24.988281-13.851563-35.488281-23.539063zm-111.824219 39.570313h160v64h-160zm24 312v-232h152v256h-128c-13.253907 0-24-10.746094-24-24zm168 24v-256h32v256zm200-24c0 13.253906-10.742188 24-24 24h-128v-256h152zm24-248h-160v-64h160zm0 0"/><path d="m253.507812 109.53125c.769532 0 1.535157-.109375 2.273438-.328125 19.59375-5.726563 37.707031-15.652344 53.078125-29.089844 11.382813-10.886719 16.289063-26.902343 12.960937-42.296875-.804687-2.117187-2.480468-3.789062-4.597656-4.597656-15.394531-3.328125-31.410156 1.578125-42.296875 12.960938-13.433593 15.371093-23.359375 33.484374-29.089843 53.078124-.714844 2.421876-.25 5.039063 1.261718 7.058594 1.511719 2.023438 3.886719 3.214844 6.410156 3.214844zm32.730469-52.039062c5.601563-5.59375 13.019531-8.996094 20.910157-9.601563-.597657 7.894531-4.003907 15.316406-9.597657 20.917969-9 8.007812-19.277343 14.453125-30.402343 19.074218 4.625-11.125 11.078124-21.394531 19.089843-30.390624zm0 0"/>
</symbol>

<symbol id="location" fill-rule="evenodd" clip-rule="evenodd" stroke-linejoin="round" stroke-miterlimit="1.414" viewBox="0 0 530 530">
<path d="M506.555,208.064L263.859,30.367c-4.68-3.426-11.038-3.426-15.716,0L5.445,208.064 c-5.928,4.341-7.216,12.665-2.875,18.593s12.666,7.214,18.593,2.875L256,57.588l234.837,171.943c2.368,1.735,5.12,2.57,7.848,2.57 c4.096,0,8.138-1.885,10.744-5.445C513.771,220.729,512.483,212.405,506.555,208.064z"/><path d="M442.246,232.543c-7.346,0-13.303,5.956-13.303,13.303v211.749H322.521V342.009c0-36.68-29.842-66.52-66.52-66.52 s-66.52,29.842-66.52,66.52v115.587H83.058V245.847c0-7.347-5.957-13.303-13.303-13.303s-13.303,5.956-13.303,13.303v225.053 c0,7.347,5.957,13.303,13.303,13.303h133.029c6.996,0,12.721-5.405,13.251-12.267c0.032-0.311,0.052-0.651,0.052-1.036v-128.89 c0-22.009,17.905-39.914,39.914-39.914s39.914,17.906,39.914,39.914v128.89c0,0.383,0.02,0.717,0.052,1.024 c0.524,6.867,6.251,12.279,13.251,12.279h133.029c7.347,0,13.303-5.956,13.303-13.303V245.847 C455.549,238.499,449.593,232.543,442.246,232.543z"/>
</symbol>

<symbol id="global" fill-rule="evenodd" clip-rule="evenodd" stroke-linejoin="round" stroke-miterlimit="1.414" viewBox="0 0 500 450">
<path d="m240 0c-132.546875 0-240 107.453125-240 240s107.453125 240 240 240 240-107.453125 240-240c-.148438-132.484375-107.515625-239.851562-240-240zm207.566406 324.078125-68.253906 11.777344c7.8125-28.652344 12.03125-58.164063 12.558594-87.855469h71.929687c-.902343 26.117188-6.398437 51.871094-16.234375 76.078125zm-431.367187-76.078125h71.929687c.527344 29.691406 4.746094 59.203125 12.558594 87.855469l-68.253906-11.777344c-9.835938-24.207031-15.332032-49.960937-16.234375-76.078125zm16.234375-92.078125 68.253906-11.777344c-7.8125 28.652344-12.03125 58.164063-12.558594 87.855469h-71.929687c.902343-26.117188 6.398437-51.871094 16.234375-76.078125zm215.566406-27.472656c28.746094.367187 57.421875 2.984375 85.761719 7.832031l28.238281 4.871094c8.675781 29.523437 13.34375 60.078125 13.878906 90.847656h-127.878906zm88.488281-7.9375c-29.238281-4.996094-58.828125-7.695313-88.488281-8.0625v-96c45.863281 4.40625 85.703125 46.398437 108.28125 107.511719zm-104.488281-8.0625c-29.660156.367187-59.242188 3.066406-88.480469 8.0625l-19.800781 3.425781c22.578125-61.128906 62.417969-103.136719 108.28125-107.523438zm-85.753906 23.832031c28.335937-4.847656 57.007812-7.464844 85.753906-7.832031v103.550781h-127.878906c.535156-30.769531 5.203125-61.324219 13.878906-90.847656zm-42.125 111.71875h127.878906v103.550781c-28.746094-.367187-57.421875-2.984375-85.761719-7.832031l-28.238281-4.871094c-8.675781-29.523437-13.34375-60.078125-13.878906-90.847656zm39.390625 111.488281c29.238281 5.003907 58.824219 7.714844 88.488281 8.105469v96c-45.863281-4.410156-85.703125-46.402344-108.28125-107.515625zm104.488281 8.105469c29.660156-.390625 59.242188-3.101562 88.480469-8.105469l19.800781-3.425781c-22.578125 61.128906-62.417969 103.136719-108.28125 107.523438zm85.753906-23.875c-28.335937 4.847656-57.007812 7.464844-85.753906 7.832031v-103.550781h127.878906c-.535156 30.769531-5.203125 61.324219-13.878906 90.847656zm58.117188-111.71875c-.527344-29.691406-4.746094-59.203125-12.558594-87.855469l68.253906 11.777344c9.835938 24.207031 15.332032 49.960937 16.234375 76.078125zm47.601562-93.710938-65.425781-11.289062c-11.761719-38.371094-33.765625-72.808594-63.648437-99.601562 55.878906 18.648437 102.21875 58.457031 129.074218 110.890624zm-269.871094-110.890624c-29.882812 26.792968-51.886718 61.230468-63.648437 99.601562l-65.425781 11.289062c26.855468-52.433593 73.195312-92.242187 129.074218-110.890624zm-129.074218 314.3125 65.425781 11.289062c11.761719 38.371094 33.765625 72.808594 63.648437 99.601562-55.878906-18.648437-102.21875-58.457031-129.074218-110.890624zm269.871094 110.890624c29.882812-26.792968 51.886718-61.230468 63.648437-99.601562l65.425781-11.289062c-26.855468 52.433593-73.195312 92.242187-129.074218 110.890624zm0 0"/>
</symbol>

<symbol id="email" fill-rule="evenodd" clip-rule="evenodd" stroke-linejoin="round" stroke-miterlimit="1.414" viewBox="0 0 32 28">
<path d="M25.109,21.51c-0.123,0-0.246-0.045-0.342-0.136l-5.754-5.398c-0.201-0.188-0.211-0.505-0.022-0.706 c0.189-0.203,0.504-0.212,0.707-0.022l5.754,5.398c0.201,0.188,0.211,0.505,0.022,0.706C25.375,21.457,25.243,21.51,25.109,21.51z"/><path d="M5.902,21.51c-0.133,0-0.266-0.053-0.365-0.158c-0.189-0.201-0.179-0.518,0.022-0.706l5.756-5.398 c0.202-0.188,0.519-0.18,0.707,0.022c0.189,0.201,0.179,0.518-0.022,0.706l-5.756,5.398C6.148,21.465,6.025,21.51,5.902,21.51z"/><path d="M28.512,26.529H2.5c-1.378,0-2.5-1.121-2.5-2.5V6.982c0-1.379,1.122-2.5,2.5-2.5h26.012c1.378,0,2.5,1.121,2.5,2.5v17.047 C31.012,25.408,29.89,26.529,28.512,26.529z M2.5,5.482c-0.827,0-1.5,0.673-1.5,1.5v17.047c0,0.827,0.673,1.5,1.5,1.5h26.012 c0.827,0,1.5-0.673,1.5-1.5V6.982c0-0.827-0.673-1.5-1.5-1.5H2.5z"/><path d="M15.506,18.018c-0.665,0-1.33-0.221-1.836-0.662L0.83,6.155C0.622,5.974,0.6,5.658,0.781,5.449 c0.183-0.208,0.498-0.227,0.706-0.048l12.84,11.2c0.639,0.557,1.719,0.557,2.357,0L29.508,5.419 c0.207-0.181,0.522-0.161,0.706,0.048c0.181,0.209,0.16,0.524-0.048,0.706L17.342,17.355 C16.835,17.797,16.171,18.018,15.506,18.018z"/>
</symbol>

</svg>
