<svg xmlns="http://www.w3.org/2000/svg" xmlns:xlink="http://www.w3.org/1999/xlink">

<symbol id="windows" fill-rule="evenodd" clip-rule="evenodd" stroke-linejoin="round" stroke-miterlimit="1.414" viewBox="0 0 500 500">
<polygon style="fill:#90C300;" points="242.526,40.421 512,0 512,239.832 242.526,239.832 "/><polygon style="fill:#F8672C;" points="0,75.453 206.596,44.912 206.596,242.526 0,242.526 "/><polygon style="fill:#FFC400;" points="242.526,471.579 512,512 512,278.456 242.526,278.456 "/><polygon style="fill:#00B4F2;" points="0,436.547 206.596,467.088 206.596,278.456 0,278.456 "/>
</symbol>

<symbol id="macos" fill='#aaa' fill-rule="evenodd" clip-rule="evenodd" stroke-linejoin="round" stroke-miterlimit="1.414" viewBox="0 0 23 23">
<path d="M15.769,0c0.053,0,0.106,0,0.162,0c0.13,1.606-0.483,2.806-1.228,3.675c-0.731,0.863-1.732,1.7-3.351,1.573 c-0.108-1.583,0.506-2.694,1.25-3.561C13.292,0.879,14.557,0.16,15.769,0z"/><path d="M20.67,16.716c0,0.016,0,0.03,0,0.045c-0.455,1.378-1.104,2.559-1.896,3.655c-0.723,0.995-1.609,2.334-3.191,2.334 c-1.367,0-2.275-0.879-3.676-0.903c-1.482-0.024-2.297,0.735-3.652,0.926c-0.155,0-0.31,0-0.462,0 c-0.995-0.144-1.798-0.932-2.383-1.642c-1.725-2.098-3.058-4.808-3.306-8.276c0-0.34,0-0.679,0-1.019 c0.105-2.482,1.311-4.5,2.914-5.478c0.846-0.52,2.009-0.963,3.304-0.765c0.555,0.086,1.122,0.276,1.619,0.464 c0.471,0.181,1.06,0.502,1.618,0.485c0.378-0.011,0.754-0.208,1.135-0.347c1.116-0.403,2.21-0.865,3.652-0.648 c1.733,0.262,2.963,1.032,3.723,2.22c-1.466,0.933-2.625,2.339-2.427,4.74C17.818,14.688,19.086,15.964,20.67,16.716z"/>
</symbol>

<symbol id="ubuntu" fill='#FF5722' fill-rule="evenodd" clip-rule="evenodd" stroke-linejoin="round" stroke-miterlimit="1.414" viewBox="0 0 500 500">
<circle cx="54.674" cy="256" r="53.333"/> <circle cx="406.61" cy="458.667" r="53.333"/> <circle cx="406.61" cy="53.333" r="53.333"/> <path d="M262.098,147.669c2.383,4.129,7.216,6.176,11.84,5.013c55.924-14.4,113.089,18.592,128.597,74.219 c1.298,4.593,5.489,7.764,10.261,7.765h87.168c5.891,0.003,10.669-4.77,10.673-10.661c0-0.566-0.045-1.132-0.134-1.691 c-6.168-38.801-22.959-75.137-48.512-104.981c-3.524-4.066-9.524-4.871-13.995-1.877c-12.228,8.182-26.61,12.548-41.323,12.544 c-40.78-0.145-73.959-32.869-74.667-73.643c-0.078-5.395-4.171-9.882-9.536-10.453c-33.448-3.504-67.251,0.925-98.667,12.928 c-5.501,2.108-8.251,8.277-6.143,13.778c0.201,0.524,0.443,1.032,0.724,1.518L262.098,147.669z"/> <path d="M499.986,277.333h-87.168c-4.772,0.001-8.963,3.173-10.261,7.765 c-15.489,55.642-72.67,88.643-128.597,74.219c-4.624-1.163-9.457,0.884-11.84,5.013l-43.605,75.541 c-2.947,5.101-1.201,11.625,3.9,14.572c0.486,0.281,0.994,0.523,1.518,0.724c31.384,12.127,65.217,16.56,98.667,12.928 c5.365-0.571,9.458-5.059,9.536-10.453c0.472-41.14,34.205-74.109,75.345-73.637c14.435,0.165,28.511,4.521,40.516,12.538 c4.491,2.991,10.507,2.157,14.016-1.941c25.542-29.826,42.332-66.138,48.512-104.917c0.931-5.817-3.03-11.287-8.847-12.218 C501.118,277.378,500.552,277.333,499.986,277.333z"/> <path d="M223.548,330.261c-40.254-41.333-40.254-107.211,0-148.544c3.338-3.429,3.983-8.662,1.579-12.8 l-43.541-75.371c-1.564-2.711-4.239-4.599-7.317-5.163c-3.058-0.527-6.198,0.246-8.661,2.133 c-30.98,25.188-54.276,58.557-67.243,96.32c-1.451,4.211-0.133,8.881,3.307,11.712c31.735,25.306,36.947,71.546,11.641,103.281 c-3.432,4.304-7.337,8.209-11.641,11.641c-3.44,2.831-4.758,7.501-3.307,11.712c12.975,37.729,36.263,71.067,67.221,96.235 c1.905,1.549,4.286,2.392,6.741,2.389c0.644-0.004,1.286-0.061,1.92-0.171c3.078-0.564,5.754-2.452,7.317-5.163l43.541-75.413 C227.516,338.928,226.879,333.696,223.548,330.261z"/> 
</symbol>

<symbol id="linux" fill='#FF5722' fill-rule="evenodd" clip-rule="evenodd" stroke-linejoin="round" stroke-miterlimit="1.414" viewBox="0 0 280 280">
<path id="XMLID_92_" d="M274.659,244.888c-8.944-3.663-12.77-8.524-12.4-15.777c0.381-8.466-4.422-14.667-6.703-17.117 c1.378-5.264,5.405-23.474,0.004-39.291c-5.804-16.93-23.524-42.787-41.808-68.204c-7.485-10.438-7.839-21.784-8.248-34.922 c-0.392-12.531-0.834-26.735-7.822-42.525C190.084,9.859,174.838,0,155.851,0c-11.295,0-22.889,3.53-31.811,9.684 c-18.27,12.609-15.855,40.1-14.257,58.291c0.219,2.491,0.425,4.844,0.545,6.853c1.064,17.816,0.096,27.206-1.17,30.06 c-0.819,1.865-4.851,7.173-9.118,12.793c-4.413,5.812-9.416,12.4-13.517,18.539c-4.893,7.387-8.843,18.678-12.663,29.597 c-2.795,7.99-5.435,15.537-8.005,20.047c-4.871,8.676-3.659,16.766-2.647,20.505c-1.844,1.281-4.508,3.803-6.757,8.557 c-2.718,5.8-8.233,8.917-19.701,11.122c-5.27,1.078-8.904,3.294-10.804,6.586c-2.765,4.791-1.259,10.811,0.115,14.925 c2.03,6.048,0.765,9.876-1.535,16.826c-0.53,1.604-1.131,3.42-1.74,5.423c-0.959,3.161-0.613,6.035,1.026,8.542 c4.331,6.621,16.969,8.956,29.979,10.492c7.768,0.922,16.27,4.029,24.493,7.035c8.057,2.944,16.388,5.989,23.961,6.913 c1.151,0.145,2.291,0.218,3.39,0.218c11.434,0,16.6-7.587,18.238-10.704c4.107-0.838,18.272-3.522,32.871-3.882 c14.576-0.416,28.679,2.462,32.674,3.357c1.256,2.404,4.567,7.895,9.845,10.724c2.901,1.586,6.938,2.495,11.073,2.495 c0.001,0,0,0,0.001,0c4.416,0,12.817-1.044,19.466-8.039c6.632-7.028,23.202-16,35.302-22.551c2.7-1.462,5.226-2.83,7.441-4.065 c6.797-3.768,10.506-9.152,10.175-14.771C282.445,250.905,279.356,246.811,274.659,244.888z M124.189,243.535 c-0.846-5.96-8.513-11.871-17.392-18.715c-7.26-5.597-15.489-11.94-17.756-17.312c-4.685-11.082-0.992-30.568,5.447-40.602 c3.182-5.024,5.781-12.643,8.295-20.011c2.714-7.956,5.521-16.182,8.66-19.783c4.971-5.622,9.565-16.561,10.379-25.182 c4.655,4.444,11.876,10.083,18.547,10.083c1.027,0,2.024-0.134,2.977-0.403c4.564-1.318,11.277-5.197,17.769-8.947 c5.597-3.234,12.499-7.222,15.096-7.585c4.453,6.394,30.328,63.655,32.972,82.044c2.092,14.55-0.118,26.578-1.229,31.289 c-0.894-0.122-1.96-0.221-3.08-0.221c-7.207,0-9.115,3.934-9.612,6.283c-1.278,6.103-1.413,25.618-1.427,30.003 c-2.606,3.311-15.785,18.903-34.706,21.706c-7.707,1.12-14.904,1.688-21.39,1.688c-5.544,0-9.082-0.428-10.551-0.651l-9.508-10.879 C121.429,254.489,125.177,250.583,124.189,243.535z M136.254,64.149c-0.297,0.128-0.589,0.265-0.876,0.411 c-0.029-0.644-0.096-1.297-0.199-1.952c-1.038-5.975-5-10.312-9.419-10.312c-0.327,0-0.656,0.025-1.017,0.08 c-2.629,0.438-4.691,2.413-5.821,5.213c0.991-6.144,4.472-10.693,8.602-10.693c4.85,0,8.947,6.536,8.947,14.272 C136.471,62.143,136.4,63.113,136.254,64.149z M173.94,68.756c0.444-1.414,0.684-2.944,0.684-4.532 c0-7.014-4.45-12.509-10.131-12.509c-5.552,0-10.069,5.611-10.069,12.509c0,0.47,0.023,0.941,0.067,1.411 c-0.294-0.113-0.581-0.223-0.861-0.329c-0.639-1.935-0.962-3.954-0.962-6.015c0-8.387,5.36-15.211,11.95-15.211 c6.589,0,11.95,6.824,11.95,15.211C176.568,62.78,175.605,66.11,173.94,68.756z M169.081,85.08 c-0.095,0.424-0.297,0.612-2.531,1.774c-1.128,0.587-2.532,1.318-4.289,2.388l-1.174,0.711c-4.718,2.86-15.765,9.559-18.764,9.952 c-2.037,0.274-3.297-0.516-6.13-2.441c-0.639-0.435-1.319-0.897-2.044-1.362c-5.107-3.351-8.392-7.042-8.763-8.485 c1.665-1.287,5.792-4.508,7.905-6.415c4.289-3.988,8.605-6.668,10.741-6.668c0.113,0,0.215,0.008,0.321,0.028 c2.51,0.443,8.701,2.914,13.223,4.718c2.09,0.834,3.895,1.554,5.165,2.01C166.742,82.664,168.828,84.422,169.081,85.08z  M205.028,271.45c2.257-10.181,4.857-24.031,4.436-32.196c-0.097-1.855-0.261-3.874-0.42-5.826 c-0.297-3.65-0.738-9.075-0.283-10.684c0.09-0.042,0.19-0.078,0.301-0.109c0.019,4.668,1.033,13.979,8.479,17.226 c2.219,0.968,4.755,1.458,7.537,1.458c7.459,0,15.735-3.659,19.125-7.049c1.996-1.996,3.675-4.438,4.851-6.372 c0.257,0.753,0.415,1.737,0.332,3.005c-0.443,6.885,2.903,16.019,9.271,19.385l0.927,0.487c2.268,1.19,8.292,4.353,8.389,5.853 c-0.001,0.001-0.051,0.177-0.387,0.489c-1.509,1.379-6.82,4.091-11.956,6.714c-9.111,4.652-19.438,9.925-24.076,14.803 c-6.53,6.872-13.916,11.488-18.376,11.488c-0.537,0-1.026-0.068-1.461-0.206C206.873,288.406,202.886,281.417,205.028,271.45z  M39.917,245.477c-0.494-2.312-0.884-4.137-0.465-5.905c0.304-1.31,6.771-2.714,9.533-3.313c3.883-0.843,7.899-1.714,10.525-3.308 c3.551-2.151,5.474-6.118,7.17-9.618c1.228-2.531,2.496-5.148,4.005-6.007c0.085-0.05,0.215-0.108,0.463-0.108 c2.827,0,8.759,5.943,12.177,11.262c0.867,1.341,2.473,4.028,4.331,7.139c5.557,9.298,13.166,22.033,17.14,26.301 c3.581,3.837,9.378,11.214,7.952,17.541c-1.044,4.909-6.602,8.901-7.913,9.784c-0.476,0.108-1.065,0.163-1.758,0.163 c-7.606,0-22.662-6.328-30.751-9.728l-1.197-0.503c-4.517-1.894-11.891-3.087-19.022-4.241c-5.674-0.919-13.444-2.176-14.732-3.312 c-1.044-1.171,0.167-4.978,1.235-8.337c0.769-2.414,1.563-4.91,1.998-7.523C41.225,251.596,40.499,248.203,39.917,245.477z"/> 
</symbol>

<symbol id="azure" fill-rule="evenodd" clip-rule="evenodd" stroke-linejoin="round" stroke-miterlimit="1.414" viewBox="0 0 500 500">
<path style="fill:#009AD2;" d="M150.962,379.495H0l136.118-232.954l151.777-76.943L150.962,379.495z"/><path style="fill:#007CAA;" d="M512,442.402H126.163v-30.034h214.419l-109.079-139.6L309.235,95.39L512,442.402z"/>
</symbol>

<symbol id="docker" fill-rule="evenodd" clip-rule="evenodd" stroke-linejoin="round" stroke-miterlimit="1.414" viewBox="0 0 530 530">
<path style="fill:#006BC0;" d="M512,256c0,141.385-114.615,256-256,256S0,397.385,0,256S114.615,0,256,0 c130.497,0,238.184,97.646,253.994,223.859c1.149,9.122,1.818,18.39,1.964,27.784C511.99,253.095,512,254.548,512,256z"/> <path style="fill:#F2F2F2;" d="M511.958,251.643c-21.859,26.624-64.69,24.545-64.69,24.545 c-26.415,113.8-185.94,171.719-296.699,143.266C39.821,391.011,55.056,258.915,55.056,258.915h324.138 c26.749,0,28.787-8.129,28.787-8.129c-23.709-56.226,12.873-86.371,12.873-86.371c28.453,5.089,35.558,53.854,35.558,53.854 c23.353-4.19,42.109,0.794,53.582,5.59C511.143,232.981,511.812,242.249,511.958,251.643z"/> <rect x="89.6" y="207.433" style="fill:#F2F2F2;" width="45.39" height="41.32"/> <rect x="146.641" y="207.433" style="fill:#F2F2F2;" width="45.39" height="41.32"/> <rect x="317.743" y="207.433" style="fill:#F2F2F2;" width="45.39" height="41.32"/> <rect x="260.712" y="207.433" style="fill:#F2F2F2;" width="45.39" height="41.32"/> <rect x="260.712" y="101.763" style="fill:#F2F2F2;" width="45.39" height="41.32"/> <rect x="203.671" y="207.433" style="fill:#F2F2F2;" width="45.39" height="41.32"/> <rect x="146.641" y="154.593" style="fill:#F2F2F2;" width="45.39" height="41.32"/> <rect x="260.712" y="154.593" style="fill:#F2F2F2;" width="45.39" height="41.32"/> <rect x="203.671" y="154.593" style="fill:#F2F2F2;" width="45.39" height="41.32"/>
</symbol>

<symbol id="kubernetes" fill-rule="evenodd" clip-rule="evenodd" stroke-linejoin="round" stroke-miterlimit="1.414" viewBox="0 0 90 85">
<path d="m 79.797436,18.8 c -0.5,-1.6 -1.7,-2.9 -3.2,-3.7 l -30.5,-14.6 c -0.8,-0.4 -1.7,-0.5 -2.5,-0.5 -0.8,0 -1.7,0 -2.5,0.2 l -30.5,14.7 c -1.5000002,0.7 -2.6000002,2 -3.0000002,3.7 L 0.09743584,51.5 c -0.3,1.7 0.1,3.4 1.09999996,4.8 L 22.297436,82.4 c 1.2,1.2 2.9,2 4.6,2.1 h 33.6 c 1.8,0.2 3.5,-0.6 4.6,-2.1 l 21.1,-26.1 c 1,-1.4 1.4,-3.1 1.2,-4.8 l -7.6,-32.7 z" style="fill:#326de6" /> <path d="m 75.097436,50.2 0,0 c -0.1,0 -0.2,0 -0.2,-0.1 0,-0.1 -0.2,-0.1 -0.4,-0.1 -0.4,-0.1 -0.8,-0.1 -1.2,-0.1 -0.2,0 -0.4,0 -0.6,-0.1 h -0.1 c -1.1,-0.1 -2.3,-0.3 -3.4,-0.6 -0.3,-0.1 -0.6,-0.4 -0.7,-0.7 0.1,0 0,0 0,0 l 0,0 -0.8,-0.2 c 0.4,-2.9 0.2,-5.9 -0.4,-8.8 -0.7,-2.9 -1.9,-5.7 -3.5,-8.2 l 0.6,-0.6 0,0 v -0.1 c 0,-0.3 0.1,-0.7 0.3,-0.9 0.9,-0.8 1.8,-1.4 2.8,-2 l 0,0 c 0.2,-0.1 0.4,-0.2 0.6,-0.3 0.4,-0.2 0.7,-0.4 1.1,-0.6 0.1,-0.1 0.2,-0.1 0.3,-0.2 0.1,-0.1 0,-0.1 0,-0.2 l 0,0 c 0.9,-0.7 1.1,-1.9 0.4,-2.8 -0.3,-0.4 -0.9,-0.7 -1.4,-0.7 -0.5,0 -1,0.2 -1.4,0.5 l 0,0 -0.1,0.1 c -0.1,0.1 -0.2,0.2 -0.3,0.2 -0.3,0.3 -0.6,0.6 -0.8,0.9 -0.1,0.2 -0.3,0.3 -0.4,0.4 l 0,0 c -0.7,0.8 -1.6,1.6 -2.5,2.2 -0.2,0.1 -0.4,0.2 -0.6,0.2 -0.1,0 -0.3,0 -0.4,-0.1 h -0.1 l -0.8,0.5 c -0.8,-0.8 -1.7,-1.6 -2.5,-2.4 -3.7,-2.9 -8.3,-4.7 -13,-5.2 l -0.1,-0.8 0,0 0,0.1 c -0.3,-0.2 -0.4,-0.5 -0.5,-0.8 0,-1.1 0,-2.2 0.2,-3.4 v -0.1 c 0,-0.2 0.1,-0.4 0.1,-0.6 0.1,-0.4 0.1,-0.8 0.2,-1.2 v -0.6 l 0,0 c 0.1,-1 -0.7,-2 -1.7,-2.1 -0.6,-0.1 -1.2,0.2 -1.7,0.7 -0.4,0.4 -0.6,0.9 -0.6,1.4 l 0,0 v 0.5 c 0,0.4 0.1,0.8 0.2,1.2 0.1,0.2 0.1,0.4 0.1,0.6 v 0.1 c 0.2,1.1 0.2,2.2 0.2,3.4 -0.1,0.3 -0.2,0.6 -0.5,0.8 l 0,0.2 0,0 -0.1,0.8 c -1.1,0.1 -2.2,0.3 -3.4,0.5 -4.7,1 -9,3.5 -12.3,7 l -0.6,-0.4 h -0.1 c -0.1,0 -0.2,0.1 -0.4,0.1 -0.2,0 -0.4,-0.1 -0.6,-0.2 -0.9,-0.7 -1.8,-1.5 -2.5,-2.3 l 0,0 c -0.1,-0.2 -0.3,-0.3 -0.4,-0.4 -0.3,-0.3 -0.5,-0.6 -0.8,-0.9 -0.1,-0.1 -0.2,-0.1 -0.3,-0.2 -0.1,-0.1 -0.1,-0.1 -0.1,-0.1 l 0,0 c -0.4,-0.3 -0.9,-0.5 -1.4,-0.5 -0.6,0 -1.1,0.2 -1.4,0.7 -0.6,0.9 -0.4,2.1 0.4,2.8 l 0,0 c 0.1,0 0.1,0.1 0.1,0.1 0,0 0.2,0.2 0.3,0.2 0.3,0.2 0.7,0.4 1.1,0.6 0.2,0.1 0.4,0.2 0.6,0.3 l 0,0 c 1,0.6 2,1.2 2.8,2 0.2,0.2 0.4,0.6 0.3,0.9 v -0.1 l 0,0 0.6,0.6 c -0.1,0.2 -0.2,0.3 -0.3,0.5 -3.1,4.9 -4.4,10.7 -3.5,16.4 l -0.8,0.2 0,0 c 0,0.1 -0.1,0.1 -0.1,0.1 -0.1,0.3 -0.4,0.5 -0.7,0.7 -1.1,0.3 -2.2,0.5 -3.4,0.6 h 0 c -0.2,0 -0.4,0 -0.6,0.1 -0.4,0 -0.8,0.1 -1.2,0.1 -0.1,0 -0.2,0.1 -0.4,0.1 -0.1,0 -0.1,0 -0.2,0.1 l 0,0 c -1.1,0.2 -1.8,1.2 -1.6,2.3 0,0 0,0 0,0 0.2,0.9 1.1,1.5 2,1.4 0.2,0 0.3,0 0.5,-0.1 l 0,0 c 0.1,0 0.1,0 0.1,-0.1 0,-0.1 0.3,0 0.4,0 0.4,-0.1 0.8,-0.3 1.1,-0.4 0.2,-0.1 0.4,-0.2 0.6,-0.2 h 0.1 c 1.1,-0.4 2.1,-0.7 3.3,-0.9 h 0.1 c 0.3,0 0.6,0.1 0.8,0.3 0.1,0 0.1,0.1 0.1,0.1 l 0,0 0.9,-0.1 c 1.5,4.6 4.3,8.7 8.2,11.7 0.9,0.7 1.7,1.3 2.7,1.8 l -0.5,0.7 0,0 c 0,0.1 0.1,0.1 0.1,0.1 0.2,0.3 0.2,0.7 0.1,1 -0.4,1 -1,2 -1.6,2.9 v 0.1 c -0.1,0.2 -0.2,0.3 -0.4,0.5 -0.2,0.2 -0.4,0.6 -0.7,1 -0.1,0.1 -0.1,0.2 -0.2,0.3 0,0 0,0.1 -0.1,0.1 l 0,0 c -0.5,1 -0.1,2.2 0.8,2.7 0.2,0.1 0.5,0.2 0.7,0.2 0.8,0 1.5,-0.5 1.9,-1.2 l 0,0 c 0,0 0,-0.1 0.1,-0.1 0,-0.1 0.1,-0.2 0.2,-0.3 0.1,-0.4 0.3,-0.7 0.4,-1.1 l 0.2,-0.6 0,0 c 0.3,-1.1 0.8,-2.1 1.3,-3.1 0.2,-0.3 0.5,-0.5 0.8,-0.6 0.1,0 0.1,0 0.1,-0.1 l 0,0 0.4,-0.8 c 2.8,1.1 5.7,1.6 8.7,1.6 1.8,0 3.6,-0.2 5.4,-0.7 1.1,-0.2 2.2,-0.6 3.2,-0.9 l 0.4,0.7 0,0 c 0.1,0 0.1,0 0.1,0.1 0.3,0.1 0.6,0.3 0.8,0.6 0.5,1 1,2 1.3,3.1 v 0.1 l 0.2,0.6 c 0.1,0.4 0.2,0.8 0.4,1.1 0.1,0.1 0.1,0.2 0.2,0.3 0,0 0,0.1 0.1,0.1 l 0,0 c 0.4,0.7 1.1,1.2 1.9,1.2 0.3,0 0.5,-0.1 0.8,-0.2 0.4,-0.2 0.8,-0.6 0.9,-1.1 0.1,-0.5 0.1,-1 -0.1,-1.5 l 0,0 c 0,-0.1 -0.1,-0.1 -0.1,-0.1 0,-0.1 -0.1,-0.2 -0.2,-0.3 -0.2,-0.4 -0.4,-0.7 -0.7,-1 -0.1,-0.2 -0.2,-0.3 -0.4,-0.5 v -0.2 c -0.7,-0.9 -1.2,-1.9 -1.6,-2.9 -0.1,-0.3 -0.1,-0.7 0.1,-1 0,-0.1 0.1,-0.1 0.1,-0.1 l 0,0 -0.3,-0.8 c 5.1,-3.1 9,-7.9 10.8,-13.6 l 0.8,0.1 0,0 c 0.1,0 0.1,-0.1 0.1,-0.1 0.2,-0.2 0.5,-0.3 0.8,-0.3 h 0.1 c 1.1,0.2 2.2,0.5 3.2,0.9 h 0.1 c 0.2,0.1 0.4,0.2 0.6,0.2 0.4,0.2 0.7,0.4 1.1,0.5 0.1,0 0.2,0.1 0.4,0.1 0.1,0 0.1,0 0.2,0.1 l 0,0 c 0.2,0.1 0.3,0.1 0.5,0.1 0.9,0 1.7,-0.6 2,-1.4 -0.1,-1.1 -0.9,-1.9 -1.8,-2.1 z m -28.9,-3.1 -2.7,1.3 -2.7,-1.3 -0.7,-2.9 1.9,-2.4 h 3 l 1.9,2.4 -0.7,2.9 z m 16.3,-6.5 c 0.5,2.1 0.6,4.2 0.4,6.3 l -9.5,-2.7 0,0 c -0.9,-0.2 -1.4,-1.1 -1.2,-2 0.1,-0.3 0.2,-0.5 0.4,-0.7 l 7.5,-6.8 c 1.1,1.8 1.9,3.8 2.4,5.9 z m -5.4,-9.6 -8.2,5.8 c -0.7,0.4 -1.7,0.3 -2.2,-0.4 -0.2,-0.2 -0.3,-0.4 -0.3,-0.7 l -0.6,-10.1 c 4.4,0.5 8.3,2.4 11.3,5.4 l 0,0 z m -18.1,-5.1 2,-0.4 -0.5,10 0,0 c 0,0.9 -0.8,1.6 -1.7,1.6 -0.3,0 -0.5,-0.1 -0.8,-0.2 l -8.3,-5.9 c 2.6,-2.5 5.8,-4.3 9.3,-5.1 z m -12.2,8.8 7.4,6.6 0,0 c 0.7,0.6 0.8,1.6 0.2,2.3 -0.2,0.3 -0.4,0.4 -0.8,0.5 l -9.7,2.8 c -0.3,-4.2 0.7,-8.5 2.9,-12.2 z m -1.7,16.9 9.9,-1.7 c 0.8,0 1.6,0.5 1.7,1.3 0.1,0.3 0.1,0.7 -0.1,1 l 0,0 -3.8,9.2 c -3.5,-2.3 -6.3,-5.8 -7.7,-9.8 z m 22.7,12.4 c -1.4,0.3 -2.8,0.5 -4.3,0.5 -2.1,0 -4.3,-0.4 -6.3,-1 l 4.9,-8.9 c 0.5,-0.6 1.3,-0.8 2,-0.4 0.3,0.2 0.5,0.4 0.8,0.7 l 0,0 4.8,8.7 c -0.6,0.1 -1.2,0.2 -1.9,0.4 z m 12.2,-8.7 c -1.5,2.4 -3.6,4.5 -6,6 l -3.9,-9.4 c -0.2,-0.8 0.2,-1.6 0.9,-1.9 0.3,-0.1 0.6,-0.2 0.9,-0.2 l 10,1.7 c -0.5,1.4 -1.1,2.7 -1.9,3.8 z" style="fill:#ffffff" />
</symbol>

<symbol id="ansible" fill-rule="evenodd" clip-rule="evenodd" stroke-linejoin="round" stroke-miterlimit="1.414" viewBox="0 0 260 250">
<path d="M255.878566,127.868028 C255.878566,198.323171 198.768494,255.43274 128.312347,255.43274 C57.8622265,255.43274 0.746127325,198.323171 0.746127325,127.868028 C0.746127325,57.4179077 57.8622265,0.301808544 128.312347,0.301808544 C198.768494,0.301808544 255.878566,57.4179077 255.878566,127.868028" fill="#000000"></path> <path d="M130.459863,78.228885 L163.47146,159.705138 L113.608007,120.427335 L130.459863,78.228885 Z M189.104342,178.474123 L138.32577,56.2720498 C136.876246,52.7476854 133.977698,50.8827909 130.459863,50.8827909 C126.935499,50.8827909 123.826002,52.7476854 122.376477,56.2720498 L66.6436045,190.312411 L85.708924,190.312411 L107.771234,135.047143 L173.610097,188.23707 C176.258016,190.378208 178.168617,191.346566 180.652297,191.346566 C185.626186,191.346566 189.973756,187.617782 189.973756,182.235555 C189.973756,181.359612 189.664363,179.969354 189.104342,178.474123 L189.104342,178.474123 Z" fill="#ffffff"></path> 
</symbol>

<symbol id="circleci" fill='#343434' fill-rule="evenodd" clip-rule="evenodd" stroke-linejoin="round" stroke-miterlimit="1.414" viewBox="0 0 110 100">
 <path d="m 38.6,52.6 c 0,-6.9 5.6,-12.5 12.5,-12.5 6.9,0 12.5,5.6 12.5,12.5 0,6.9 -5.6,12.5 -12.5,12.5 C 44.2,65.2 38.6,59.5 38.6,52.6 Z M 51.1,0 C 26.5,0 5.9,16.8 0.1,39.6 0.1,39.8 0,39.9 0,40.1 c 0,1.4 1.1,2.5 2.5,2.5 l 21.2,0 c 1,0 1.9,-0.6 2.3,-1.5 l 0,0 C 30.4,31.6 39.9,25 51.1,25 66.3,25 78.7,37.4 78.7,52.6 78.7,67.8 66.3,80.2 51.1,80.2 40,80.2 30.4,73.6 26,64.1 l 0,0 c -0.4,-0.9 -1.3,-1.5 -2.3,-1.5 l -21.2,0 c -1.4,0 -2.5,1.1 -2.5,2.5 0,0.2 0,0.3 0.1,0.5 5.8,22.8 26.4,39.6 51,39.6 29.1,0 52.7,-23.6 52.7,-52.7 C 103.8,23.5 80.2,0 51.1,0 Z" />
</symbol>

<symbol id="mysql" fill='#546E7A' fill-rule="evenodd" clip-rule="evenodd" stroke-linejoin="round" stroke-miterlimit="1.414" viewBox="0 0 500 500">
<path d="M510.042,495.168c-8.771-12.365-22.979-22.625-38.021-33.49
c-16.198-11.677-32.833-23.688-41.167-37.646c31.615-6.604,71.615-18.573,73.542-19.146c3.438-1.031,6.135-3.729,7.156-7.167
c1.031-3.438,0.26-7.167-2.052-9.917c-2.063-2.448-50.49-59.271-128.656-87.146c-3.448-6.906-7.292-15.76-11.76-26
C337.604,202.429,272.25,52.533,99.823,32.366C86.083,23.085,50.073,0.002,32,0.002c-22.427,0-32,9.573-32,32
c0,10.917,8.885,23.677,23.375,43.604c7.083,9.74,18.938,26.042,19.292,31.063c0,17.458,20.25,73.979,40.615,98.156
c-0.583,1.24-1.167,2.458-1.74,3.667C72.521,227.502,64,245.46,64,288.002c0,56.021,26.833,85.333,53.333,85.333
c16.448,0,24.635-18.667,28.573-40.521c14.615,29.656,38.49,68.292,71.938,91.906c4.823,3.375,11.479,2.229,14.875-2.563
c3.396-4.823,2.25-11.469-2.563-14.875c-53.042-37.438-81.073-121.74-81.354-122.594c-1.625-4.979-6.729-8.063-11.813-7.219
c-5.177,0.823-8.99,5.292-8.99,10.531c0,29.292-5.583,60.5-10.667,64c-15.385,0-32-24.469-32-64
c0-37.74,6.833-52.135,15.479-70.365c1.615-3.406,3.281-6.906,4.938-10.635c1.906-4.302,0.781-9.344-2.781-12.417
C86.531,180.429,64,120.835,64,106.668c0-10.917-8.885-23.677-23.375-43.604c-7.083-9.74-18.938-26.042-19.292-31.063
c0-10.667,0-10.667,10.667-10.667c8.646,0,36.823,15.635,57.969,30.135c1.448,0.99,3.125,1.615,4.885,1.802
c162.115,17.583,222.333,155.708,254.677,229.917c5.448,12.5,10.156,23.302,14.406,31.198c1.281,2.385,3.417,4.188,5.969,5.052
c53.24,18.042,92.938,51.76,111.542,69.865c-18.167,5.094-47.177,12.844-67.198,16.177c-2.938,0.49-5.542,2.188-7.167,4.677
c-1.635,2.49-2.156,5.542-1.427,8.427c6.552,26.25,31.698,44.396,53.875,60.396c13.573,9.792,26.385,19.042,33.094,28.521
c2.083,2.938,5.375,4.5,8.719,4.5c2.135,0,4.281-0.635,6.156-1.958C512.302,506.637,513.448,499.981,510.042,495.168z"/>
<path d="M96,85.335c0,5.896,4.771,10.667,10.667,10.667c5.885,0,10.667,4.781,10.667,10.667
c0,5.896,4.771,10.667,10.667,10.667c5.896,0,10.667-4.771,10.667-10.667c0-17.646-14.354-32-32-32
C100.771,74.668,96,79.439,96,85.335z"/>
</symbol>

<symbol id="mariadb" fill="#444b5e" fill-rule="evenodd" clip-rule="evenodd" stroke-linejoin="round" stroke-miterlimit="1.414" viewBox="0 0 45 30">
<path d="m75.198 5.328c-1.872.047-2.977.863-3.34 2.42.481.418 1.126.6 1.769.572 1.415-.061 2.817-1.138 2.42-2.965-.298-.025-.582-.035-.849-.027" transform="matrix(.5201203234 0 0 .5201203234 .00000010531 7.19563960763)"/>
<path d="m84.839 0h-.142-.025c-1.335.043-1.542.767-4.425 1.477-2.912.717-5.725.028-8.861 1.344-9.361 3.927-11.355 17.472-19.865 22.279-6.361 3.593-12.512 5.188-18.281 6.995-3.792 1.188-7.552 2.556-10.988 5.516-2.667 2.299-3.391 4.085-6.177 6.969-2.835 2.933-11.553-2.258-15.801 1.54-.373.332-.363.924.014 1.253.921.805 2.671 2.722 4.336 3.314-.528 1.001-3.513 3.946-2.904 5.419.641 1.549 8.039.497 14.88-3.633 3.185-1.924 5.723-4.696 10.685-5.357 6.42-.855 13.817.549 21.25 1.62-1.103 3.286-3.315 5.473-5.088 8.089-.549.592 1.103.658 2.986.301 3.389-.838 5.832-1.513 8.389-3.001 3.143-1.83 3.619-6.52 7.474-7.534 1.864 2.865 6.509 3.829 10.074 2.309.198-.084.392-.177.582-.275.431-.375.178-.813-.086-1.135-.132-.119-.243-.237-.362-.364-2.012-2.162-2.472-7.266-1.579-9.748 1.017-2.824 2.022-7.343 3.046-11.075 1.1-4.01 1.506-9.063 2.837-11.106 2.002-3.072 4.215-4.127 6.136-5.86 1.92-1.733 3.679-3.419 3.621-7.384-.018-1.219-.619-1.923-1.726-1.953m.204 4.163c-.396 2.734-2.152 4.247-4.207 5.688-1.81 1.27-3.794 2.493-5.069 4.477-1.305 2.031-2.134 8.985-4.159 15.852-1.68 5.698-4.184 11.335-8.467 14.05-.278.176-.645.015-.704-.309-.289-1.592-.24-4.509-.734-3.56-.62 1.77-1.322 3.458-2.143 5.027-2.52 4.816-6.166 8.505-12.057 9.949-.475.116-.838-.423-.552-.82 2.718-3.769 5.15-7.825 5.447-14.014.025-.534-.646-.778-.983-.364-1.284 1.583-1.591 5.347-3.477 6.506-1.474.161-2.967.16-4.469.07-6.171-.37-12.502-2.226-18.274-.373-3.931 1.262-8.057 4.849-11.386 6.293-3.912 1.696-5.765 3.297-10.706 3.187-.505-.68 2.062-3.623 2.934-4.893.278-.407-.317-.835-.874-1.091-1.338-.614-2.681-2.281-4.107-2.93.183-.337.831-.674 1.187-.881 3.241-1.88 11.832 2.124 14.141-.143 1.425-1.398 2.385-2.626 3.353-4.049.939-1.381 2.368-2.838 3.847-4.047.546-.447 1.311-1.003 1.941-1.435 2.52-1.724 3.907-1.852 7.17-3.064 4.152-1.544 9.293-2.898 13.747-4.6 2.752-1.053 5.744-2.351 8.183-4.169.579-.432 1.127-.893 1.634-1.386 6.964-6.79 8.345-18.766 19.211-19.882 1.314-.135 2.248-.192 3.228-.223 1.096-.029 2.181-.309 3.263-.818.334-.146 2.324-1.349 2.996-.768.448.388.115 2.492.086 2.72" transform="matrix(.5201203234 0 0 .5201203234 .00000010531 7.19563960763)"/>
</symbol>

<symbol id="redis" fill-rule="evenodd" clip-rule="evenodd" stroke-linejoin="round" stroke-miterlimit="1.414" viewBox="0 0 32 28">
<g transform="matrix(.84832704 0 0 .84832704 -7.883573 -9.449691)"><g stroke-width=".221737"><path d="m45.535541 38.763883c-2.012926 1.049258-12.440762 5.33676-14.660791 6.494004-2.220028 1.157688-3.453328 1.146379-5.207044.307993-1.753716-.838387-12.850753-5.320795-14.84971-6.276259-.9991457-.477621-1.52444-.880517-1.52444-1.261239v-3.812763s14.446814-3.145114 16.779263-3.981727c2.332227-.836834 3.141345-.866991 5.12611-.139916 1.984988.727075 13.852782 2.868387 15.814487 3.586814 0 0-.000887 3.405211-.000887 3.758659.000222.376953-.452343.790492-1.476988 1.324434z" fill="#a41e11"/><path d="m45.535541 34.950011c-2.012926 1.048815-12.440762 5.33676-14.660791 6.494004-2.220028 1.157688-3.453328 1.146379-5.207044.307993-1.753937-.837944-12.850753-5.321239-14.84971-6.276259-1.9989567-.955464-2.0408649-1.613135-.07716-2.381896 1.963479-.769205 12.999538-5.099059 15.332209-5.935893 2.332227-.836391 3.141345-.866991 5.12611-.139694 1.984988.727075 12.350515 4.85293 14.311999 5.571357 1.961927.719093 2.037317 1.31113.02439 2.360388z" fill="#d82c20"/><path d="m45.535541 32.546385c-2.012926 1.049258-12.440762 5.33676-14.660791 6.494447-2.220028 1.157244-3.453328 1.145936-5.207044.307549-1.753937-.837943-12.850753-5.320795-14.84971-6.276259-.9991457-.477621-1.52444-.880073-1.52444-1.260795v-3.813207s14.446814-3.144892 16.779263-3.981726c2.332227-.836613 3.141345-.866991 5.12611-.139916 1.984988.727075 13.852782 2.867943 15.814487 3.586592 0 0-.000887 3.405211-.000887 3.759103.000222.37673-.452343.79027-1.476988 1.324212z" fill="#a41e11"/><path d="m45.535541 28.732513c-2.012926 1.049258-12.440762 5.33676-14.660791 6.494447-2.220028 1.157244-3.453328 1.145936-5.207044.307549-1.753937-.837943-12.850753-5.321017-14.84971-6.276259-1.9989567-.955242-2.0408649-1.612913-.07716-2.382118 1.963479-.768761 12.999538-5.098836 15.332209-5.935449 2.332227-.836613 3.141345-.866991 5.12611-.139916 1.984988.727075 12.350515 4.852709 14.311999 5.571358 1.961927.71887 2.037317 1.311129.02439 2.360388z" fill="#d82c20"/><path d="m45.535541 26.09828c-2.012926 1.049258-12.440762 5.336982-14.660791 6.494669-2.220028 1.157244-3.453328 1.145936-5.207044.307549-1.753937-.837943-12.850753-5.321017-14.84971-6.276258-.9991457-.477621-1.52444-.880295-1.52444-1.260796v-3.813207s14.446814-3.144892 16.779263-3.981505c2.332227-.836834 3.141345-.86699 5.12611-.139916 1.984988.727075 13.852782 2.867944 15.814487 3.586592 0 0-.000887 3.405212-.000887 3.758882.000222.376509-.452343.790048-1.476988 1.32399z" fill="#a41e11"/><path d="m45.535541 22.284408c-2.012926 1.049258-12.440762 5.336982-14.660791 6.494448-2.220028 1.157244-3.453328 1.145935-5.207044.30777s-12.850753-5.321017-14.84971-6.276259c-1.9989567-.955242-2.0408649-1.613134-.077164-2.382117 1.963479-.768984 12.999538-5.098615 15.332209-5.93545 2.332227-.836834 3.141345-.866991 5.12611-.139694 1.984988.727075 12.350515 4.852709 14.311999 5.571358 1.961927.718427 2.037317 1.310907.02439 2.359944z" fill="#d82c20"/></g><path d="m260.63 258.13-5.33-8.86-17.02-1.53 12.7-4.58-3.81-7.03 11.89 4.65 11.21-3.67-3.03 7.27 11.43 4.28-14.74 1.53z" fill="#fff" transform="matrix(.22173675 0 0 .22173675 -28.695271 -36.524613)"/><path d="m232.24 275.77 39.42-6.05-11.91 17.46z" fill="#fff" transform="matrix(.22173675 0 0 .22173675 -28.695271 -36.524613)"/><ellipse cx="20.44381" cy="21.401894" fill="#fff" rx="4.671772" ry="1.810924" stroke-width=".221737"/><path d="m319.42 260.05-23.31 9.21-.02-18.43z" fill="#7a0c00" transform="matrix(.22173675 0 0 .22173675 -28.695271 -36.524613)"/><path d="m296.11 269.26-2.53.99-23.3-9.21 25.81-10.21z" fill="#ad2115" transform="matrix(.22173675 0 0 .22173675 -28.695271 -36.524613)"/></g>
</symbol>

<symbol id="memcached" fill-rule="evenodd" clip-rule="evenodd" stroke-linejoin="round" stroke-miterlimit="1.414" viewBox="0 0 250 250">
<path d="M0 171.19V82.17C0 10.271 10.26 0 82.086 0h89.189C243.1 0 253.36 10.271 253.36 82.171v89.019c0 71.9-10.26 82.17-82.086 82.17H82.086C10.261 253.36 0 243.09 0 171.19z" fill="#80716D"/><path d="M8.891.655C-3.562 79.583 2.953 153.48 2.953 153.48h38.928c-3.704-19.704-16.992-109.724-5.938-110.021 5.924.94 32.99 76.371 32.99 76.371s5.96-.742 11.958-.742 11.959.742 11.959.742 27.066-75.43 32.99-76.371c11.053.297-2.235 90.317-5.938 110.02h38.927s6.516-73.896-5.938-152.824H116.85C109.99.736 83.89 46.51 80.891 46.51 77.892 46.51 51.792.736 44.932.655H8.892z" fill="#268D83" transform="translate(45.79 47.098)"/><path d="M73.214 144.267a9.213 9.213 0 1 1-18.427 0 9.213 9.213 0 0 1 18.427 0z" fill="#C83737" transform="translate(45.79 47.098)"/><path d="M106.995 144.267a9.213 9.213 0 1 1-18.426 0 9.213 9.213 0 0 1 18.426 0z" fill="#C83737" transform="translate(45.79 47.098)"/><path d="M196.846 50.362c5.618 38.026 6.936 74.52 6.833 101.705-.106 27.806-1.699 45.871-1.699 45.871h-32.767l-3.521 2.64h38.927s6.516-73.897-5.938-152.825l-1.835 2.61zm-103.154-.96c10.226 11.376 27.913 41.567 30.35 41.567-6.484-8.292-22.411-34.748-30.35-41.567zM79.094 87.918c-11.054.297 2.234 90.317 5.938 110.02H51.05l-2.307 2.64h38.928c-3.685-19.604-16.856-108.825-6.103-110.021-1.002-1.504-1.866-2.543-2.474-2.64zm89.896 0c-5.923.94-32.99 76.371-32.99 76.371s-5.96-.742-11.958-.742c-3.549 0-6.604.218-8.67.41l-.65 2.971s5.961-.742 11.96-.742c5.997 0 11.958.742 11.958.742s26.862-74.936 32.907-76.371c-.651-1.65-1.456-2.61-2.557-2.64z" opacity=".1"/><path d="M54.681 47.753c-12.453 78.928-5.938 152.825-5.938 152.825L51.035 198c-1.173-17.434-4.306-80.48 6.285-147.609h36.042c.763.01 1.787.635 2.969 1.65-2.36-2.626-4.322-4.274-5.609-4.29h-36.04zm107.959 0c-6.86.081-32.96 45.856-35.959 45.856 1.223 1.564 2.216 2.639 2.64 2.639 2.998 0 29.098-45.775 35.958-45.856h31.806l1.596-2.64H162.64zM84.207 93.196c8.755 13.148 30.515 73.732 30.515 73.732l.637-2.954c-5.372-14.732-25.844-69.961-30.987-70.778-.056.002-.11-.006-.165 0zm90.062 0c5.872 14.977-5.244 89.649-8.577 107.382l3.53-2.757c4.508-26.446 15.363-104.347 5.047-104.625z" opacity=".3" fill="#FFF"/>
</symbol>

<symbol  id="info" style="fill:#fff;" fill-rule="evenodd" clip-rule="evenodd" stroke-linejoin="round" stroke-miterlimit="1.414" viewBox="0 0 70 70">
<path d="M32.5,0C14.58,0,0,14.579,0,32.5S14.58,65,32.5,65S65,50.421,65,32.5S50.42,0,32.5,0z M32.5,61C16.785,61,4,48.215,4,32.5
S16.785,4,32.5,4S61,16.785,61,32.5S48.215,61,32.5,61z"/><circle cx="33.018" cy="19.541" r="3.345"/><path d="M32.137,28.342c-1.104,0-2,0.896-2,2v17c0,1.104,0.896,2,2,2s2-0.896,2-2v-17C34.137,29.237,33.241,28.342,32.137,28.342z"/>
</symbol>

<symbol id="haproxy" fill-rule="evenodd" clip-rule="evenodd" stroke-linejoin="round" stroke-miterlimit="1.414" viewBox="9 45 90 90">
<path d="m35.599998 85.599998h10.5v10.52h-10.5z" fill="#256ea5" transform="matrix(.00698126 -.99997563 .99997563 .00698126 -50.4 131.1)"/><path d="m46.900002 74h10.5v10.52h-10.5z" fill="#256ea5" transform="matrix(.00698126 -.99997563 .99997563 .00698126 -27.5 130.900001)"/><path d="m46.900002 97h10.5v10.52h-10.5z" fill="#256ea5" transform="matrix(.00698126 -.99997563 .99997563 .00698126 -50.500004 153.800003)"/><path d="m58.400002 85.599998h10.5v10.52h-10.5z" fill="#256ea5" transform="matrix(.00698126 -.99997563 .99997563 .00698126 -27.7 153.8)"/><path d="m57.700001 65.199997h7.3v7.33h-7.3z" fill="#3378bc" transform="matrix(.00698126 -.99997563 .99997563 .00698126 -7.9 129.7)"/><path d="m39.400002 65.199997h7.3v7.33h-7.3z" fill="#3378bc" transform="matrix(.00698126 -.99997563 .99997563 .00698126 -26.1 111.4)"/><path d="m26.700001 78.099998h7.3v7.33h-7.3z" fill="#3378bc" transform="matrix(.00698126 -.99997563 .99997563 .00698126 -51.6 111.600001)"/><path d="m26.799999 96.5h7.3v7.33h-7.3z" fill="#3378bc" transform="matrix(.01047178 -.99994517 .99994517 .01047178 -70.100002 129.600002)"/><path d="m70.400002 96.400002h7.3v7.33h-7.3z" fill="#3378bc" transform="matrix(.00698126 -.99997563 .99997563 .00698126 -26.500003 173.400003)"/><path d="m70.599998 78.199997h7.3v7.33h-7.3z" fill="#3378bc" transform="matrix(.01047178 -.99994517 .99994517 .01047178 -8.4 155.299999)"/><path d="m20.700001 68.900002h4.8v4.79h-4.8z" fill="#169bd6" transform="matrix(.00698126 -.99997563 .99997563 .00698126 -48.3 93.9)"/><path d="m30.1 59.099998h4.8v4.79h-4.8z" fill="#169bd6" transform="matrix(.00698126 -.99997563 .99997563 .00698126 -29.200001 93.6)"/><path d="m43 54.400002h4.8v4.79h-4.8z" fill="#169bd6" transform="matrix(.00698126 -.99997563 .99997563 .00698126 -11.7 101.7)"/><path d="m17.9 82.199997h4.8v4.76h-4.8z" fill="#169bd6" transform="matrix(.00698126 -.99997563 .99997563 .00698126 -64.400001 104.3)"/><path d="m78.800003 68.900002h4.8v4.79h-4.8z" fill="#169bd6" transform="matrix(.99997563 -.00698126 .00698126 .99997563 -.5 .6)"/><path d="m69.400002 59h4.8v4.79h-4.8z" fill="#169bd6" transform="matrix(.99997563 -.00698126 .00698126 .99997563 -.4 .5)"/><path d="m56.5 54.299999h4.8v4.79h-4.8z" fill="#169bd6" transform="matrix(.99997563 -.00698126 .00698126 .99997563 -.4 .4)"/><path d="m81.599998 82.199997h4.8v4.79h-4.8z" fill="#169bd6" transform="matrix(.99997563 -.00698126 .00698126 .99997563 -.6 .6)"/><path d="m39.299999 108.9h7.3v7.33h-7.3z" fill="#3378bc" transform="matrix(.00698126 -.99997563 .99997563 .00698126 -69.899997 154.799997)"/><path d="m57.599998 108.9h7.3v7.33h-7.3z" fill="#3378bc" transform="matrix(.00698126 -.99997563 .99997563 .00698126 -51.7 173.1)"/><path d="m78.800003 107.8h4.8v4.79h-4.8z" fill="#169bd6" transform="matrix(.00698126 -.99997563 .99997563 .00698126 -29.600004 190.600004)"/><path d="m69.400002 117.6h4.8v4.79h-4.8z" fill="#169bd6" transform="matrix(.00698126 -.99997563 .99997563 .00698126 -48.599999 190.999999)"/><path d="m56.5 122.3h4.8v4.79h-4.8z" fill="#169bd6" transform="matrix(.00698126 -.99997563 .99997563 .00698126 -66.099998 182.799998)"/><path d="m81.599998 94.400002h4.8v4.79h-4.8z" fill="#169bd6" transform="matrix(.00698126 -.99997563 .99997563 .00698126 -13.4 180.200001)"/><path d="m20.799999 107.7h4.8v4.79h-4.8z" fill="#169bd6" transform="matrix(.99997563 -.00698126 .00698126 .99997563 -.8 .2)"/><path d="m30.1 117.6h4.8v4.79h-4.8z" fill="#169bd6" transform="matrix(.99997563 -.00698126 .00698126 .99997563 -.8 .2)"/><path d="m43 122.3h4.8v4.79h-4.8z" fill="#169bd6" transform="matrix(.99997563 -.00698126 .00698126 .99997563 -.9 .3)"/><path d="m18 94.5h4.8v4.79h-4.8z" fill="#169bd6" transform="matrix(.99997563 -.00698126 .00698126 .99997563 -.7 .1)"/><path d="m23.5 56.400002h2.6v2.65h-2.6z" fill="#00a8da" transform="matrix(.00698126 -.99997563 .99997563 .00698126 -33.1 82.1)"/><path d="m8.2 85.400002h2.6v2.65h-2.6z" fill="#00a8da" transform="matrix(.00698126 -.99997563 .99997563 .00698126 -77.2 95.6)"/><path d="m9.8 77.099998h2.6v2.65h-2.6z" fill="#00a8da" transform="matrix(.00698126 -.99997563 .99997563 .00698126 -67.4 88.999999)"/><path d="m38.299999 48.299999h2.6v2.65h-2.6z" fill="#00a8da" transform="matrix(.00698126 -.99997563 .99997563 .00698126 -10.2 88.900001)"/><path d="m13 69.300003h2.6v2.65h-2.6z" fill="#00a8da" transform="matrix(.00698126 -.99997563 .99997563 .00698126 -56.4 84.400001)"/><path d="m17.700001 62.299999h2.6v2.65h-2.6z" fill="#00a8da" transform="matrix(.00698126 -.99997563 .99997563 .00698126 -44.7 82.1)"/><path d="m30.6 51.700001h2.6v2.65h-2.6z" fill="#00a8da" transform="matrix(.99997563 -.00698126 .00698126 .99997563 -.4 .2)"/><path d="m46.599998 46.599998h2.6v2.65h-2.6z" fill="#00a8da" transform="matrix(.99997563 -.00698126 .00698126 .99997563 -.3 .3)"/><path d="m88.900002 69.300003h2.6v2.65h-2.6z" fill="#00a8da" transform="matrix(.00698126 -.99997563 .99997563 .00698126 18.9 160.3)"/><path d="m92.199997 77.099998h2.6v2.65h-2.6z" fill="#00a8da" transform="matrix(.00698126 -.99997563 .99997563 .00698126 14.5 171.4)"/><path d="m84.199997 62.299999h2.6v2.65h-2.6z" fill="#00a8da" transform="matrix(.00698126 -.99997563 .99997563 .00698126 21.3 148.7)"/><path d="m93.599998 85.300003h2.6v2.65h-2.6z" fill="#00a8da" transform="matrix(.00698126 -.99997563 .99997563 .00698126 7.6 180.9)"/><path d="m55.099998 46.599998h2.6v2.65h-2.6z" fill="#00a8da" transform="matrix(.00698126 -.99997563 .99997563 .00698126 8.099999 103.9)"/><path d="m63.400002 48.200001h2.6v2.65h-2.6z" fill="#00a8da" transform="matrix(.00698126 -.99997563 .99997563 .00698126 14.7 113.899999)"/><path d="m23.5 56.400002h2.6v2.65h-2.6z" fill="#00a8da" transform="matrix(.00698126 -.99997563 .99997563 .00698126 -33.1 82.1)"/><path d="m8.2 85.400002h2.6v2.65h-2.6z" fill="#00a8da" transform="matrix(.00698126 -.99997563 .99997563 .00698126 -77.2 95.6)"/><path d="m78.400002 56.400002h2.6v2.65h-2.6z" fill="#00a8da" transform="matrix(.00698126 -.99997563 .99997563 .00698126 21.4 137)"/><path d="m9.8 77.099998h2.6v2.65h-2.6z" fill="#00a8da" transform="matrix(.00698126 -.99997563 .99997563 .00698126 -67.4 88.999999)"/><path d="m38.299999 48.299999h2.6v2.65h-2.6z" fill="#00a8da" transform="matrix(.00698126 -.99997563 .99997563 .00698126 -10.2 88.900001)"/><path d="m13 69.300003h2.6v2.65h-2.6z" fill="#00a8da" transform="matrix(.00698126 -.99997563 .99997563 .00698126 -56.4 84.400001)"/><path d="m17.700001 62.299999h2.6v2.65h-2.6z" fill="#00a8da" transform="matrix(.00698126 -.99997563 .99997563 .00698126 -44.7 82.1)"/><path d="m30.6 51.700001h2.6v2.65h-2.6z" fill="#00a8da" transform="matrix(.99997563 -.00698126 .00698126 .99997563 -.4 .2)"/><path d="m46.599998 46.599998h2.6v2.65h-2.6z" fill="#00a8da" transform="matrix(.99997563 -.00698126 .00698126 .99997563 -.3 .3)"/><path d="m71.199997 51.700001h2.6v2.65h-2.6z" fill="#00a8da" transform="matrix(.00698126 -.99997563 .99997563 .00698126 19.1 125.2)"/><path d="m93.599998 85.300003h2.6v2.65h-2.6z" fill="#00a8da" transform="matrix(.00698126 -.99997563 .99997563 .00698126 7.6 180.9)"/><path d="m55.099998 46.599998h2.6v2.65h-2.6z" fill="#00a8da" transform="matrix(.00698126 -.99997563 .99997563 .00698126 8.099999 103.9)"/><path d="m63.400002 48.200001h2.6v2.65h-2.6z" fill="#00a8da" transform="matrix(.00698126 -.99997563 .99997563 .00698126 14.7 113.899999)"/><path d="m78.400002 122.6h2.6v2.65h-2.6z" fill="#00a8da" transform="matrix(.00698126 -.99997563 .99997563 .00698126 -44.8 202.8)"/><path d="m93.599998 93.599998h2.6v2.65h-2.6z" fill="#00a8da" transform="matrix(.00698126 -.99997563 .99997563 .00698126 -.7 189.2)"/><path d="m23.5 122.6h2.6v2.65h-2.6z" fill="#00a8da" transform="matrix(.00698126 -.99997563 .99997563 .00698126 -99.300002 147.900002)"/><path d="m92.199997 102h2.6v2.65h-2.6z" fill="#00a8da" transform="matrix(.00698126 -.99997563 .99997563 .00698126 -10.4 196.1)"/><path d="m63.400002 130.7h2.6v2.65h-2.6z" fill="#00a8da" transform="matrix(.00698126 -.99997563 .99997563 .00698126 -67.800004 195.900003)"/><path d="m88.800003 109.8h2.6v2.65h-2.6z" fill="#00a8da" transform="matrix(.00698126 -.99997563 .99997563 .00698126 -21.599998 200.499997)"/><path d="m84.199997 116.8h2.6v2.65h-2.6z" fill="#00a8da" transform="matrix(.00698126 -.99997563 .99997563 .00698126 -33.200004 202.900003)"/><path d="m71.199997 127.5h2.6v2.65h-2.6z" fill="#00a8da" transform="matrix(.99997563 -.00698126 .00698126 .99997563 -.9 .5)"/><path d="m55.200001 132.39999h2.6v2.65h-2.6z" fill="#00a8da" transform="matrix(.99997563 -.00698126 .00698126 .99997563 -.9 .4)"/><path d="m30.6 127.6h2.6v2.65h-2.6z" fill="#00a8da" transform="matrix(.00698126 -.99997563 .99997563 .00698126 -97.199998 159.899998)"/><path d="m12.9 109.7h2.6v2.65h-2.6z" fill="#00a8da" transform="matrix(.00698126 -.99997563 .99997563 .00698126 -96.899999 124.499999)"/><path d="m9.8 102h2.6v2.65h-2.6z" fill="#00a8da" transform="matrix(.00698126 -.99997563 .99997563 .00698126 -92.300002 113.700003)"/><path d="m17.6 116.8h2.6v2.65h-2.6z" fill="#00a8da" transform="matrix(.00698126 -.99997563 .99997563 .00698126 -99.300002 136.300002)"/><path d="m8.2 93.699997h2.6v2.65h-2.6z" fill="#00a8da" transform="matrix(.00698126 -.99997563 .99997563 .00698126 -85.5 103.8)"/><path d="m46.700001 132.39999h2.6v2.65h-2.6z" fill="#00a8da" transform="matrix(.00698126 -.99997563 .99997563 .00698126 -86.000001 180.8)"/><path d="m38.400002 130.7h2.6v2.65h-2.6z" fill="#00a8da" transform="matrix(.00698126 -.99997563 .99997563 .00698126 -92.700002 170.800001)"/>
</symbol>

<symbol id="jquery" fill-rule="evenodd" clip-rule="evenodd" stroke-linejoin="round" stroke-miterlimit="1.414" viewBox="0 0 1024 1024">
<path clip-rule="evenodd" d="M998.805,732.723c-13.82,22.922-26.303,46.783-41.688,68.604 c-76.772,108.89-181.907,172.541-313.433,192.371c-66.178,9.979-132.508,7.857-198.1-4.579 c-69.746-13.228-132.964-43.214-191.343-82.808C134.691,825.239,52.255,716.616,15.683,575.831 C-8.703,481.958-6.389,388.978,34.968,299.635c10.78-23.292,25.342-45.11,40.216-66.159 c17.196-24.337,36.655-47.075,56.563-69.713c-3.375,7.893-6.939,15.714-10.098,23.694 c-37.179,93.888-37.583,189.26-9.019,284.936c38.868,130.189,119.156,230.037,230.596,305.628 c99.967,67.806,210.821,100.244,331.678,96.827c91.813-2.595,178.04-24.681,252.769-80.38 c24.921-18.575,46.77-41.27,70.024-62.078C998.064,732.502,998.436,732.612,998.805,732.723z" fill-rule="evenodd"/><path clip-rule="evenodd" d="M1024,474.521c-7.513,14.825-14.04,29.874-22.392,43.834 c-53.706,89.768-133.248,140.99-236.166,157.154c-52.851,8.303-105.735,6.77-157.824-3.423 c-37.721-7.381-72.919-23.65-106.017-43.457c-95.812-57.337-164.044-136.989-192.522-246.309 c-24.27-93.162-11.342-180.839,46.995-259.745c11.403-15.424,22.224-31.278,33.336-46.917c0.379-0.535,0.992-0.902,2.345-2.1 c-0.418,2.044-0.443,3.358-0.947,4.451c-42.287,91.75-38.86,184.009,4.677,272.985c68.189,139.356,181.558,219.78,335.73,239.274 c86.489,10.936,167.009-8.228,236.772-62.518C987.96,512.208,1004.938,492.826,1024,474.521z" fill-rule="evenodd"/><path clip-rule="evenodd" d="M605.3,24c-4.276,17.406-10.085,34.323-12.4,51.707 c-7.479,56.16,9.264,106.64,40.688,152.367c47.184,68.662,113.273,106.404,195.819,116.046c26.303,3.071,52.43,2.894,78.281-3.25 c29.313-6.968,40.998-14.011,82.194-48.85c-2.51,4.832-3.814,7.739-5.46,10.44c-38.795,63.714-95.444,95.492-170.116,98.527 c-127.829,5.199-233.313-91.405-256.971-190.864c-13.99-58.816-4.693-113.471,31.083-162.94 C594.042,39.412,599.713,31.672,605.3,24z" fill-rule="evenodd"/>
</symbol>

<symbol id="bootstarp" style="fill:#fff;" fill-rule="evenodd" clip-rule="evenodd" stroke-linejoin="round" stroke-miterlimit="1.414" viewBox="-30 0 430 300">
<path d="m344 0h-320c-13.230469 0-24 10.769531-24 24v320c0 13.230469 10.769531 24 24 24h320c13.230469 0 24-10.769531 24-24v-320c0-13.230469-10.769531-24-24-24zm8 344c0 4.414062-3.59375 8-8 8h-320c-4.40625 0-8-3.585938-8-8v-320c0-4.40625 3.59375-8 8-8h320c4.40625 0 8 3.59375 8 8zm0 0"/><path d="m216 64h-112c-4.414062 0-8 3.585938-8 8v224c0 4.425781 3.585938 8 8 8h112c30.878906 0 56-25.128906 56-56v-16c0-20.34375-10.902344-38.191406-27.175781-48 16.273437-9.808594 27.175781-27.65625 27.175781-48v-16c0-30.878906-25.121094-56-56-56zm40 168v16c0 22.054688-17.945312 40-40 40h-104v-96h104c22.054688 0 40 17.945312 40 40zm0-96c0 22.054688-17.945312 40-40 40h-104v-96h104c22.054688 0 40 17.945312 40 40zm0 0"/>
</symbol>

<symbol id="vue" fill-rule="evenodd" clip-rule="evenodd" stroke-linejoin="round" stroke-miterlimit="1.414" viewBox="50 0 330 300">
<defs id="defs6" /><g transform="matrix(1.3333333,0,0,-1.3333333,0,400)" id="g10"><g transform="translate(178.0626,235.0086)" id="g12"><path id="path14" style="fill:#4dba87;fill-opacity:1;fill-rule:nonzero;stroke:none" d="M 0,0 -22.669,-39.264 -45.338,0 h -75.491 L -22.669,-170.017 75.491,0 Z" /></g><g transform="translate(178.0626,235.0086)" id="g16"><path id="path18" style="fill:#435466;fill-opacity:1;fill-rule:nonzero;stroke:none" d="M 0,0 -22.669,-39.264 -45.338,0 H -81.565 L -22.669,-102.01 36.227,0 Z" /></g></g>
</symbol>

<symbol id="prometheus" fill="#E75225" fill-rule="evenodd" clip-rule="evenodd" stroke-linejoin="round" stroke-miterlimit="1.414" viewBox="0 0 450 450">
<path d="M215.926,7.068c115.684,0.024,210.638,93.784,210.493,207.844 c-0.148,115.793-94.713,208.252-212.912,208.169C97.95,423,4.52,329.143,4.601,213.221C4.68,99.867,99.833,7.044,215.926,7.068z M151.979,80.069c2.652,12.978,0.076,25.082-3.846,36.988c-2.716,8.244-6.47,16.183-8.711,24.539 c-3.694,13.769-7.885,27.619-9.422,41.701c-2.21,20.25,5.795,38.086,19.493,55.822c-22.25-4.657-42.428-8.88-62.966-13.179 c0.11,1.978-0.007,2.727,0.21,3.361c5.968,17.43,16.471,32.115,28.243,45.957c1.246,1.465,4.082,2.217,6.182,2.221 c62.782,0.115,125.565,0.109,188.347,0.028c1.948-0.003,4.546-0.369,5.741-1.618c13.456-14.063,23.746-30.079,30.179-50.257 c-23.061,4.489-44.893,8.739-66.658,12.976c4.397-8.567,9.417-16.1,12.302-24.377c9.869-28.315,5.779-55.69-8.387-81.509 c-11.368-20.72-21.854-41.349-16.183-66.32c-12.005,11.786-16.615,26.79-19.541,42.253c-2.882,15.23-4.58,30.684-6.811,46.136 c-0.317-0.467-0.728-0.811-0.792-1.212c-0.258-1.621-0.499-3.255-0.587-4.893c-1.355-25.31-6.328-49.696-16.823-72.987 c-6.178-13.71-12.99-27.727-6.622-44.081c-4.31,2.259-8.205,4.505-10.997,7.711c-8.333,9.569-11.779,21.062-12.666,33.645 c-0.757,10.75-1.796,21.552-3.801,32.123c-2.107,11.109-5.448,21.998-12.956,32.209C171.874,115.496,171.537,93.926,151.979,80.069 z M313.856,296.592c-66.229,0-131.466,0-196.914,0c0,11.661,0,22.809,0,34.007c65.932,0,131.376,0,196.914,0 C313.856,319.012,313.856,308.028,313.856,296.592z M155.985,348.167c-0.163,28.317,28.851,49.414,64.709,47.883 c29.716-1.269,56.016-24.51,53.755-47.883C235.127,348.167,195.77,348.167,155.985,348.167z"/>
</symbol>

<symbol id="php" fill-rule="evenodd" clip-rule="evenodd" stroke-linejoin="round" stroke-miterlimit="1.414" viewBox="0 0 550 550">
<path style="fill:#8F9ED1;" d="M512,256c0,15.485-1.379,30.647-4.012,45.369C486.578,421.115,381.9,512,256,512 c-94.856,0-177.664-51.587-221.884-128.24c-10.794-18.693-19.278-38.87-25.088-60.155C3.135,302.07,0,279.395,0,256 C0,114.615,114.615,0,256,0c116.694,0,215.144,78.075,245.979,184.842C508.5,207.433,512,231.309,512,256z"/><path style="fill:#F2F2F2;" d="M130.173,178.239H35.892L9.028,323.605c5.81,21.285,14.294,41.462,25.088,60.155h8.746 l10.407-56.299h51.806c63.08,0,80.039-56.633,84.104-84.449C193.254,215.207,172.91,178.239,130.173,178.239z M143.851,247.703 c-2.309,15.768-13.96,47.877-49.716,47.877H59.162l15.632-84.605h35.6C145.095,210.975,146.16,231.936,143.851,247.703z"/><path style="fill:#F2F2F2;" d="M501.979,184.842c-8.014-4.138-17.565-6.604-28.599-6.604h-94.281L341.117,383.76h44.951 l10.407-56.299h51.806c28.056,0,46.989-11.201,59.705-26.091C510.621,286.647,512,271.485,512,256 C512,231.309,508.5,207.433,501.979,184.842z M487.058,247.703c-2.309,15.768-13.96,47.877-49.727,47.877h-34.962l15.632-84.605 h35.6C488.302,210.975,489.367,231.936,487.058,247.703z"/><path style="fill:#F2F2F2;" d="M309.238,178.919c-18.295,0-42.704,0-54.597,0l10.248-55.451h-44.766L182.14,328.984h44.766 l21.843-118.186c8.07,0,18.79,0,28.61,0c18.991,0,31.879,4.07,29.165,21.705c-2.713,17.635-18.313,95.636-18.313,95.636h45.444 c0,0,17.635-86.818,20.348-111.237C356.717,192.484,334.334,178.919,309.238,178.919z"/>
</symbol>

<symbol id="python" fill-rule="evenodd" clip-rule="evenodd" stroke-linejoin="round" stroke-miterlimit="1.414" viewBox="0 0 550 550">
<path d="m504.753906 250.316406v58.050782c0 30.707031-24.890625 55.59375-55.597656 55.59375h-173.445312c-9.523438 0-17.175782 7.953124-16.730469 17.570312.445312 9.109375 8.324219 15.914062 17.207031 15.914062h41.019531c9.257813 0 16.75 7.503907 16.75 16.75v41.855469c0 30.90625-25.054687 55.949219-55.945312 55.949219h-48.660157c-30.902343 0-55.957031-25.042969-55.957031-55.949219v-147.457031h-117.796875c-30.707031 0-55.597656-24.890625-55.597656-55.597656v-49.371094c0-30.707031 24.890625-55.597656 55.597656-55.597656h117.796875v-.007813h50.769531c9.503907 0 17.164063-7.921875 16.730469-17.539062-.425781-9.007813-8.179687-15.953125-17.207031-15.953125h-33.542969c-9.246093 0-16.75-7.496094-16.75-16.742188v-41.835937c0-30.90625 25.054688-55.949219 55.957031-55.949219h48.660157c30.839843 0 55.855469 24.949219 55.945312 55.792969v138.925781h115.199219c30.707031 0 55.597656 24.902344 55.597656 55.597656zm0 0" fill="#ffda44"/><path d="m504.753906 250.316406v58.050782c0 30.707031-24.890625 55.59375-55.597656 55.59375h-173.445312c-9.523438 0-17.175782 7.953124-16.730469 17.570312.445312 9.109375 8.324219 15.914062 17.207031 15.914062h41.019531c9.257813 0 16.75 7.503907 16.75 16.75v41.855469c0 30.90625-25.054687 55.949219-55.945312 55.949219h-24.332031v-512h24.332031c30.839843 0 55.855469 24.949219 55.945312 55.792969v138.925781h115.199219c30.707031 0 55.597656 24.902344 55.597656 55.597656zm0 0" fill="#ffcd00"/><path d="m318.261719 437.164062c0 9.246094-7.492188 16.742188-16.738281 16.742188-9.246094 0-16.742188-7.496094-16.742188-16.742188 0-9.246093 7.496094-16.738281 16.742188-16.738281 9.246093 0 16.738281 7.492188 16.738281 16.738281zm0 0" fill="#4895ff"/><path d="m318.261719 437.164062c0 9.246094-7.492188 16.742188-16.738281 16.742188v-33.480469c9.246093 0 16.738281 7.492188 16.738281 16.738281zm0 0" fill="#2682ff"/><path d="m333.957031 55.792969v138.925781 22.953125c0 18.503906-14.988281 33.492187-33.492187 33.492187h-110.320313c-9.246093 0-16.75 7.507813-16.75 16.742188v40.6875h-117.796875c-30.707031 0-55.597656-24.898438-55.597656-55.597656v-49.371094c0-30.699219 24.890625-55.597656 55.597656-55.597656h117.796875v-.007813h50.769531c9.503907 0 17.164063-7.921875 16.730469-17.539062-.425781-9.007813-8.179687-15.953125-17.207031-15.953125h-33.542969c-9.246093 0-16.75-7.496094-16.75-16.742188v-41.835937c0-30.90625 25.054688-55.949219 55.957031-55.949219h48.660157c30.839843 0 55.855469 24.949219 55.945312 55.792969zm0 0" fill="#4895ff"/><path d="m333.957031 55.792969v138.925781 22.953125c0 18.503906-14.988281 33.492187-33.492187 33.492187h-46.785156v-251.164062h24.332031c30.839843 0 55.855469 24.949219 55.945312 55.792969zm0 0" fill="#2682ff"/><path d="m226.433594 78.695312c0 9.242188-7.496094 16.738282-16.742188 16.738282-9.257812 0-16.75-7.496094-16.75-16.738282 0-9.246093 7.492188-16.753906 16.75-16.753906 9.246094 0 16.742188 7.507813 16.742188 16.753906zm0 0" fill="#ffda44"/><path d="m226.433594 78.695312c0 9.242188-7.496094 16.738282-16.742188 16.738282v-33.492188c9.246094 0 16.742188 7.507813 16.742188 16.753906zm0 0" fill="#ffcd00"/>
</symbol>

<symbol id="shell" fill-rule="evenodd" clip-rule="evenodd" stroke-linejoin="round" stroke-miterlimit="1.414" viewBox="0 0 32 32">
<path d="M29.328,2.255H2.256C1.01,2.255,0,3.264,0,4.51v22.564c0,1.245,1.01,2.256,2.256,2.256h27.072
c1.244,0,2.258-1.012,2.258-2.256V4.51C31.586,3.264,30.572,2.255,29.328,2.255z M7.333,3.949c0.622,0,1.128,0.502,1.128,1.128
c0,0.623-0.506,1.125-1.128,1.125c-0.626,0-1.131-0.502-1.131-1.125C6.202,4.451,6.707,3.949,7.333,3.949z M3.947,3.949
c0.623,0,1.127,0.502,1.127,1.128c0,0.623-0.504,1.125-1.127,1.125c-0.624,0-1.129-0.502-1.129-1.125
C2.818,4.451,3.323,3.949,3.947,3.949z M29.328,27.075H2.256V7.92h27.072C29.328,7.92,29.328,27.075,29.328,27.075z"/>
<polygon points="12.645,12.556 5.4,9.243 5.4,10.84 11.003,13.235 11.003,13.266 5.4,15.66 5.4,17.256 12.645,13.943 	"/>
<rect x="16.056" y="12.488" width="3.946" height="1.522"/>
</symbol>

<symbol id="javascript" fill="#FF9912" fill-rule="evenodd" clip-rule="evenodd" stroke-linejoin="round" stroke-miterlimit="1.414" viewBox="0 0 50 50">
<path d="M45.274,2.325C45.084,2.118,44.817,2,44.536,2H5.464C5.183,2,4.916,2.118,4.726,2.325S4.443,2.81,4.468,3.089l3.52,39.427 c0.037,0.412,0.324,0.759,0.722,0.873l16.01,4.573C24.809,47.987,24.902,48,24.994,48s0.185-0.013,0.274-0.038l16.024-4.573 c0.398-0.114,0.685-0.461,0.722-0.873l3.518-39.427C45.557,2.81,45.463,2.532,45.274,2.325z M12,29.004l7,1.942V11h4v26l-11-3.051 V29.004z M38.054,22L37,34.25L27,37v-4.601l6.75-1.855l0.25-3.75L27,28V11h12l-0.345,4H31v8L38.054,22z"/>
</symbol>

<symbol id="nodejs" fill="#8CC84B" fill-rule="evenodd" clip-rule="evenodd" stroke-linejoin="round" stroke-miterlimit="1.414" viewBox="0 0 280 280">
<path d="M116.504 3.58c6.962-3.985 16.03-4.003 22.986 0 34.995 19.774 70.001 39.517 104.99 59.303 6.581 3.707 10.983 11.031 10.916 18.614v118.968c.049 7.897-4.788 15.396-11.731 19.019-34.88 19.665-69.742 39.354-104.616 59.019-7.106 4.063-16.356 3.75-23.24-.646-10.457-6.062-20.932-12.094-31.39-18.15-2.137-1.274-4.546-2.288-6.055-4.36 1.334-1.798 3.719-2.022 5.657-2.807 4.365-1.388 8.374-3.616 12.384-5.778 1.014-.694 2.252-.428 3.224.193 8.942 5.127 17.805 10.403 26.777 15.481 1.914 1.105 3.852-.362 5.488-1.274 34.228-19.345 68.498-38.617 102.72-57.968 1.268-.61 1.969-1.956 1.866-3.345.024-39.245.006-78.497.012-117.742.145-1.576-.767-3.025-2.192-3.67-34.759-19.575-69.5-39.18-104.253-58.76a3.621 3.621 0 0 0-4.094-.006C91.2 39.257 56.465 58.88 21.712 78.454c-1.42.646-2.373 2.071-2.204 3.653.006 39.245 0 78.497 0 117.748a3.329 3.329 0 0 0 1.89 3.303c9.274 5.259 18.56 10.481 27.84 15.722 5.228 2.814 11.647 4.486 17.407 2.33 5.083-1.823 8.646-7.01 8.549-12.407.048-39.016-.024-78.038.036-117.048-.127-1.732 1.516-3.163 3.2-3 4.456-.03 8.918-.06 13.374.012 1.86-.042 3.14 1.823 2.91 3.568-.018 39.263.048 78.527-.03 117.79.012 10.464-4.287 21.85-13.966 26.97-11.924 6.177-26.662 4.867-38.442-1.056-10.198-5.09-19.93-11.097-29.947-16.55C5.368 215.886.555 208.357.604 200.466V81.497c-.073-7.74 4.504-15.197 11.29-18.85C46.768 42.966 81.636 23.27 116.504 3.58z"/><path d="M146.928 85.99c15.21-.979 31.493-.58 45.18 6.913 10.597 5.742 16.472 17.793 16.659 29.566-.296 1.588-1.956 2.464-3.472 2.355-4.413-.006-8.827.06-13.24-.03-1.872.072-2.96-1.654-3.195-3.309-1.268-5.633-4.34-11.212-9.642-13.929-8.139-4.075-17.576-3.87-26.451-3.785-6.479.344-13.446.905-18.935 4.715-4.214 2.886-5.494 8.712-3.99 13.404 1.418 3.369 5.307 4.456 8.489 5.458 18.33 4.794 37.754 4.317 55.734 10.626 7.444 2.572 14.726 7.572 17.274 15.366 3.333 10.446 1.872 22.932-5.56 31.318-6.027 6.901-14.805 10.657-23.56 12.697-11.647 2.597-23.734 2.663-35.562 1.51-11.122-1.268-22.696-4.19-31.282-11.768-7.342-6.375-10.928-16.308-10.572-25.895.085-1.619 1.697-2.748 3.248-2.615 4.444-.036 8.888-.048 13.332.006 1.775-.127 3.091 1.407 3.182 3.08.82 5.367 2.837 11 7.517 14.182 9.032 5.827 20.365 5.428 30.707 5.591 8.568-.38 18.186-.495 25.178-6.158 3.689-3.23 4.782-8.634 3.785-13.283-1.08-3.925-5.186-5.754-8.712-6.95-18.095-5.724-37.736-3.647-55.656-10.12-7.275-2.571-14.31-7.432-17.105-14.906-3.9-10.578-2.113-23.662 6.098-31.765 8.006-8.06 19.563-11.164 30.551-12.275z"/>
</symbol>

<symbol id="ga" fill="#8CC84B" fill-rule="evenodd" clip-rule="evenodd" stroke-linejoin="round" stroke-miterlimit="1.414" viewBox="0 0 30 30">
<path d="m-334-139h1392v448h-1392z" fill="none"/><g clip-path="url(#a)" transform="matrix(1.7826988 0 0 1.7877095 -.606118 -15.249162)"><path d="m16.85 8.53h-3.27a1.44 1.44 0 0 0 -1.43 1.47v16.47h4.7a1.44 1.44 0 0 0 1.44-1.47v-15a1.44 1.44 0 0 0 -1.44-1.47z" fill="#f57c00"/>
<path d="m6 15.6v4.73h-4.25a1.41 1.41 0 0 0 -1.41 1.41v3.26a1.44 1.44 0 0 0 1.41 1.43h10.4v-12.24h-4.73a1.41 1.41 0 0 0 -1.42 1.41z" fill="#ffc107"/><path d="m13.57 26.47h3.28a1.44 1.44 0 0 0 1.44-1.47v-4.65l-6.14-6.15v12.27z" fill="#bf360c"/><g fill="#fff"><path d="m7.43 14.31h4.71v-.12h-4.71a1.41 1.41 0 0 0 -1.43 1.41v.12a1.41 1.41 0 0 1 1.43-1.41z" opacity=".2"/><path d="m1.75 20.45h4.25v-.12h-4.25a1.41 1.41 0 0 0 -1.41 1.41v.12a1.41 1.41 0 0 1 1.41-1.41z" opacity=".2"/><path d="m16.85 8.53h-3.27a1.44 1.44 0 0 0 -1.43 1.47v.12a1.44 1.44 0 0 1 1.44-1.44h3.26a1.44 1.44 0 0 1 1.44 1.44v-.12a1.44 1.44 0 0 0 -1.44-1.47z" opacity=".2"/></g><path d="m16.86 26.35h-15.1a1.41 1.41 0 0 1 -1.41-1.4v.12a1.41 1.41 0 0 0 1.41 1.41h15.1a1.44 1.44 0 0 0 1.43-1.48v-.08a1.44 1.44 0 0 1 -1.43 1.43z" fill="#bf360c" opacity=".2"/></g>
</symbol>

<symbol id="aliyun" fill="#FF5722" fill-rule="evenodd" clip-rule="evenodd" stroke-linejoin="round" stroke-miterlimit="1.414" viewBox="0 0 1000 750">
<path d="M959.2 383.9c-.3-82.1-66.9-148.6-149.1-148.6H575.9l21.6 85.2 201 43.7a42.58 42.58 0 0 1 32.9 39.7c.1.5.1 216.1 0 216.6a42.58 42.58 0 0 1-32.9 39.7l-201 43.7-21.6 85.3h234.2c82.1 0 148.8-66.5 149.1-148.6V383.9zM225.5 660.4a42.58 42.58 0 0 1-32.9-39.7c-.1-.6-.1-216.1 0-216.6.8-19.4 14.6-35.5 32.9-39.7l201-43.7 21.6-85.2H213.8c-82.1 0-148.8 66.4-149.1 148.6V641c.3 82.1 67 148.6 149.1 148.6H448l-21.6-85.3-200.9-43.9zm200.9-158.8h171v21.3h-171z"/>
</symbol>

<symbol id="terraform" fill="#4A26EA" fill-rule="evenodd" clip-rule="evenodd" stroke-linejoin="round" stroke-miterlimit="1.414" viewBox="0 0 256 288">
<path d="M87.348 49.909l82.496 47.136v92.593L87.348 142.5V49.91zm86.874 139.313L256 142.226V50.232l-81.778 46.673v92.317zM0 92.592l82.496 47.137V47.136L0 0v92.592zM87.348 240.54l82.496 47.137V194.76l-82.496-47.136v92.915z"/>
</symbol>

<symbol id="aws" fill="#FF9900" fill-rule="evenodd" clip-rule="evenodd" viewBox="0 -120 300 300">
<path d="M84.7 65.3c0 3.7.4 6.7 1.1 8.9.8 2.2 1.8 4.6 3.2 7.2.5.8.7 1.6.7 2.3 0 1-.6 2-1.9 3l-6.3 4.2c-.9.6-1.8.9-2.6.9-1 0-2-.5-3-1.4-1.4-1.5-2.6-3.1-3.6-4.7-1-1.7-2-3.6-3.1-5.9-7.8 9.2-17.6 13.8-29.4 13.8-8.4 0-15.1-2.4-20-7.2-4.9-4.8-7.4-11.2-7.4-19.2 0-8.5 3-15.4 9.1-20.6s14.2-7.8 24.5-7.8c3.4 0 6.9.3 10.6.8s7.5 1.3 11.5 2.2v-7.3c0-7.6-1.6-12.9-4.7-16-3.2-3.1-8.6-4.6-16.3-4.6-3.5 0-7.1.4-10.8 1.3-3.7.9-7.3 2-10.8 3.4-1.6.7-2.8 1.1-3.5 1.3-.7.2-1.2.3-1.6.3-1.4 0-2.1-1-2.1-3.1v-4.9c0-1.6.2-2.8.7-3.5s1.4-1.4 2.8-2.1c3.5-1.8 7.7-3.3 12.6-4.5C39.3.8 44.5.2 50 .2c11.9 0 20.6 2.7 26.2 8.1 5.5 5.4 8.3 13.6 8.3 24.6v32.4h.2zM44.1 80.5c3.3 0 6.7-.6 10.3-1.8 3.6-1.2 6.8-3.4 9.5-6.4 1.6-1.9 2.8-4 3.4-6.4s1-5.3 1-8.7V53c-2.9-.7-6-1.3-9.2-1.7s-6.3-.6-9.4-.6c-6.7 0-11.6 1.3-14.9 4-3.3 2.7-4.9 6.5-4.9 11.5 0 4.7 1.2 8.2 3.7 10.6 2.4 2.5 5.9 3.7 10.5 3.7zm80.3 10.8c-1.8 0-3-.3-3.8-1-.8-.6-1.5-2-2.1-3.9L95 9.1c-.6-2-.9-3.3-.9-4 0-1.6.8-2.5 2.4-2.5h9.8c1.9 0 3.2.3 3.9 1 .8.6 1.4 2 2 3.9L129 73.7l15.6-66.2c.5-2 1.1-3.3 1.9-3.9.8-.6 2.2-1 4-1h8c1.9 0 3.2.3 4 1 .8.6 1.5 2 1.9 3.9l15.8 67 17.3-67c.6-2 1.3-3.3 2-3.9.8-.6 2.1-1 3.9-1h9.3c1.6 0 2.5.8 2.5 2.5 0 .5-.1 1-.2 1.6-.1.6-.3 1.4-.7 2.5l-24.1 77.3c-.6 2-1.3 3.3-2.1 3.9s-2.1 1-3.8 1h-8.6c-1.9 0-3.2-.3-4-1s-1.5-2-1.9-4l-15.5-64.5-15.4 64.4c-.5 2-1.1 3.3-1.9 4-.8.7-2.2 1-4 1h-8.6zM252.9 94c-5.2 0-10.4-.6-15.4-1.8-5-1.2-8.9-2.5-11.5-4-1.6-.9-2.7-1.9-3.1-2.8-.4-.9-.6-1.9-.6-2.8v-5.1c0-2.1.8-3.1 2.3-3.1.6 0 1.2.1 1.8.3.6.2 1.5.6 2.5 1 3.4 1.5 7.1 2.7 11 3.5 4 .8 7.9 1.2 11.9 1.2 6.3 0 11.2-1.1 14.6-3.3 3.4-2.2 5.2-5.4 5.2-9.5 0-2.8-.9-5.1-2.7-7-1.8-1.9-5.2-3.6-10.1-5.2l-14.5-4.5c-7.3-2.3-12.7-5.7-16-10.2-3.3-4.4-5-9.3-5-14.5 0-4.2.9-7.9 2.7-11.1s4.2-6 7.2-8.2c3-2.3 6.4-4 10.4-5.2S251.8 0 256.2 0c2.2 0 4.5.1 6.7.4 2.3.3 4.4.7 6.5 1.1 2 .5 3.9 1 5.7 1.6 1.8.6 3.2 1.2 4.2 1.8 1.4.8 2.4 1.6 3 2.5.6.8.9 1.9.9 3.3v4.7c0 2.1-.8 3.2-2.3 3.2-.8 0-2.1-.4-3.8-1.2-5.7-2.6-12.1-3.9-19.2-3.9-5.7 0-10.2.9-13.3 2.8s-4.7 4.8-4.7 8.9c0 2.8 1 5.2 3 7.1 2 1.9 5.7 3.8 11 5.5l14.2 4.5c7.2 2.3 12.4 5.5 15.5 9.6s4.6 8.8 4.6 14c0 4.3-.9 8.2-2.6 11.6-1.8 3.4-4.2 6.4-7.3 8.8-3.1 2.5-6.8 4.3-11.1 5.6-4.5 1.4-9.2 2.1-14.3 2.1z" fill="#FF9900"/><path d="M271.8 142.6c-32.9 24.3-80.7 37.2-121.8 37.2-57.6 0-109.5-21.3-148.7-56.7-3.1-2.8-.3-6.6 3.4-4.4 42.4 24.6 94.7 39.5 148.8 39.5 36.5 0 76.6-7.6 113.5-23.2 5.5-2.5 10.2 3.6 4.8 7.6z"/><path d="M285.5 127c-4.2-5.4-27.8-2.6-38.5-1.3-3.2.4-3.7-2.4-.8-4.5 18.8-13.2 49.7-9.4 53.3-5 3.6 4.5-1 35.4-18.6 50.2-2.7 2.3-5.3 1.1-4.1-1.9 4-9.9 12.9-32.2 8.7-37.5z" fill="#FF9900"/>
</symbol>

<symbol id="golang" fill="#00acd7" fill-rule="evenodd" clip-rule="evenodd" viewBox="-80 -80 650 650">
<g class="F G H I"><path d="M45.352 291c-13.378 1.876-28.958 5.754-37.066 10.684-7.337 4.463-6.374 17.6-1.154 24.1 5.5 6.862 11.974 6.495 19.78 2.905 5.123-2.357 11.293-7.6 17.667-13.492l.543-15.375.23-8.82zm384.365 6.185c-7.5-4.56-21.4-8.217-34.018-10.226l1.34 22.763.313 4.53c4.96 4.38 9.68 8.068 13.74 9.937 7.807 3.6 14.27 3.958 19.78-2.904 5.22-6.5 6.185-19.638-1.153-24.1zM55.17 564.844c-9.854 17.52 15.9 31.95 29.25 19.8 10.908-9.928 19.518-18.348 38.256-21.098-14.35-5.906-27-13.28-37.752-21.87-13.117 5.13-23.736 12.47-29.754 23.168zm298.575 15.002c11.037 14.283 38.46 1.312 30.443-17.12-5.267-12.1-15.218-22.156-27.677-28.195-8.158 7.618-17.85 14.7-29.308 20.867 12.68 6.005 18.893 14.55 26.542 24.45z" fill="#fff"/><path d="M5.048 322.396c3.333-2.397 5.688-5 11.784-8.097m416.123 3.597c-3.333-2.397-5.688-5-11.783-8.097M60.87 584.57c.9-4.95 3.6-13.275 11.7-20.476m303.48 18.866c-.026-5.03-1.304-15.266-8.866-22.195" stroke-linecap="round" fill="none"/><path d="M41.07 74.477a12.61 12.61 0 0 1 12.6-12.618c4.08 0 7.697 1.95 10 4.964 5.57-9.1 12.283-16.97 19.913-23.73-3.78-3.658-9.922-6.33-19.563-7.625-31.05-4.174-46.917 11.166-50.542 31.725-3.498 19.838 7.17 41.143 31.004 46.682 2.46-9.685 5.474-18.57 8.95-26.793-6.848-.13-12.362-5.718-12.362-12.606z" class="J"/></g><path d="M53.67 61.86c-6.96 0-12.6 5.65-12.6 12.618 0 6.888 5.514 12.477 12.362 12.605 2.48-5.866 5.2-11.4 8.112-16.638.687-1.23 1.4-2.434 2.126-3.622-2.303-3.012-5.92-4.963-10-4.963z"/><path d="M413.98 59.094c-3.625-20.56-19.492-35.9-50.54-31.725-10.765 1.447-17.166 4.6-20.8 8.945 6.867 5.93 13.257 12.745 19.272 20.518l.857 1.136c2.296-3.095 5.963-5.1 10.108-5.1 6.96 0 12.6 5.65 12.6 12.618 0 6.1-4.335 11.202-10.093 12.366 4.277 8.283 7.745 17.2 10.52 27.142 21.763-6.55 31.416-26.9 28.065-45.9z" class="F G H I J"/><path d="M385.486 65.477a12.61 12.61 0 0 0-12.6-12.618c-4.146 0-7.812 2.014-10.108 5.1 4.815 6.345 9.007 12.886 12.615 19.875 5.758-1.164 10.093-6.257 10.093-12.366z"/><g class="F G H"><path d="M362.778 57.968l-.857-1.136c-6.016-7.773-12.405-14.588-19.272-20.518-29.797-25.728-68.582-34.8-124.728-33.123-48.682 1.447-100.473 9.906-134.337 39.903-7.63 6.758-14.343 14.617-19.913 23.73a103.58 103.58 0 0 0-2.126 3.622 170.14 170.14 0 0 0-8.112 16.638c-3.476 8.224-6.5 17.108-8.95 26.793-4.767 18.77-7.463 40.533-7.462 66.257.002 45.133 8.866 67.528 8.332 110.88l-.23 8.82-.543 15.375c-1.653 53.107-1.062 105.862-1.5 142.036-.4 33.204 14.646 62.704 41.845 84.433 10.752 8.6 23.402 15.965 37.752 21.87 25.113 10.337 55.418 16.186 89.844 16.186 50.265 0 87.456-9.652 114.684-24.336 11.46-6.178 21.15-13.25 29.308-20.867 20.36-19.008 31.17-41.422 36-61.896 11.47-48.523 9.966-84.08 4.83-158.37l-.313-4.53-1.34-22.763c-1.733-37.343.064-54.317-.48-96.937-.463-36.27-3.195-63.16-9.306-85.047-2.776-9.942-6.244-18.858-10.52-27.142-3.6-6.992-7.8-13.534-12.617-19.878z" class="I J"/><ellipse fill="#fff" cx="144.121" cy="91.595" rx="54.9" ry="53.1"/></g><circle cx="115.321" cy="94.294" r="18.9"/><g fill="#fff"><circle cx="123.421" cy="98.794" r="5.4"/><ellipse cx="281.821" cy="85.294" rx="54.9" ry="53.1" class="F G H"/></g><circle cx="253.021" cy="87.995" r="18.9"/><g fill="#fff"><circle cx="261.121" cy="92.495" r="5.4"/><g stroke-miterlimit="10" class="F G H"><path d="M214.968 170.343c-10.784.188-12.4 5-21.685 6.657l-1.163 22.896c-.9 20.1 24.6 15.6 24.6 3.6v-33.132a33.4 33.4 0 0 0-1.752-.02z"/><path d="M216.72 203.495c0 12 25.5 16.5 24.6-3.6l-1.2-23.353c-11.7-.533-13.115-5.813-23.4-6.18v33.132z"/></g></g><path fill="#ac967b" d="M254.674 150.297c-4.354-4.685-9.52-7.238-16.425-8.47-3.664 5.366-12.8 9.17-23.48 9.17-10.278 0-19.112-3.518-23.034-8.56-7.4 1.417-12.753 4.185-17.15 9.26-8.627 9.96-4.437 24.9 7.156 25.695 4.957.344 8.624.13 11.54-.4 9.284-1.658 10.9-6.47 21.685-6.657a33.4 33.4 0 0 1 1.752.02c10.295.366 11.72 5.646 23.4 6.18 2.312.105 5.024.026 8.3-.316 11.56-1.207 15.225-16.276 6.254-25.928z" class="F G H I"/><path d="M214.77 150.995c10.688 0 19.814-3.803 23.48-9.17 1.107-1.622 1.722-3.385 1.722-5.23 0-7.953-11.28-14.4-25.2-14.4s-25.2 6.447-25.2 14.4c0 2.08.778 4.054 2.166 5.84 3.92 5.042 12.755 8.56 23.033 8.56z"/>
</symbol>

<symbol id="alpine" fill-rule="evenodd" clip-rule="evenodd" viewBox="0 -9 25 30">
<path d="M5.998 1.607L0 12l5.998 10.393h12.004L24 12 18.002 1.607H5.998zM9.965 7.12L12.66 9.9l1.598 1.595.002-.002 2.41 2.363c-.2.14-.386.252-.563.344a3.756 3.756 0 01-.496.217 2.702 2.702 0 01-.425.111c-.131.023-.25.034-.358.034-.13 0-.242-.014-.338-.034a1.317 1.317 0 01-.24-.072.95.95 0 01-.2-.113l-1.062-1.092-3.039-3.041-1.1 1.053-3.07 3.072a.974.974 0 01-.2.111 1.274 1.274 0 01-.237.073c-.096.02-.209.033-.338.033-.108 0-.227-.009-.358-.031a2.7 2.7 0 01-.425-.114 3.748 3.748 0 01-.496-.217 5.228 5.228 0 01-.563-.343l6.803-6.727zm4.72.785l4.579 4.598 1.382 1.353a5.24 5.24 0 01-.564.344 3.73 3.73 0 01-.494.217 2.697 2.697 0 01-.426.111c-.13.023-.251.034-.36.034-.129 0-.241-.014-.337-.034a1.285 1.285 0 01-.385-.146c-.033-.02-.05-.036-.053-.04l-1.232-1.218-2.111-2.111-.334.334L12.79 9.8l1.896-1.897zm-5.966 4.12v2.529a2.128 2.128 0 01-.356-.035 2.765 2.765 0 01-.422-.116 3.708 3.708 0 01-.488-.214 5.217 5.217 0 01-.555-.34l1.82-1.825Z" fill="red"></path>
</symbol>

<symbol id="gitlab" fill-rule="evenodd" clip-rule="evenodd" viewBox="-50 -200 1100 1100">
<path d="m958.9 442.4c1.1 26.1-2 52.1-9.2 77.2-7.1 25.1-18.3 48.8-33.1 70.3a240.43 240.43 0 0 1 -53.6 56.2l-.5.4-199.9 149.8-98.3 74.5-59.9 45.2c-3.5 2.7-7.4 4.7-11.5 6.1s-8.5 2.1-12.9 2.1c-4.3 0-8.7-.7-12.8-2.1s-8-3.4-11.5-6.1l-59.9-45.2-98.3-74.5-198.7-148.9-1.2-.8-.4-.4c-20.9-15.7-39-34.7-53.8-56.2s-26-45.3-33.2-70.4c-7.2-25.1-10.3-51.2-9.2-77.3 1.2-26.1 6.5-51.8 15.8-76.2l1.3-3.5 130.7-340.5q1-2.5 2.4-4.8 1.3-2.3 3.1-4.3 1.7-2.1 3.7-3.9 2-1.7 4.2-3.2c3.1-1.9 6.3-3.3 9.8-4.1 3.4-.9 7-1.3 10.5-1.1 3.6.2 7.1.9 10.4 2.2 3.3 1.2 6.5 3 9.3 5.2q2 1.7 3.9 3.6 1.8 2 3.2 4.3 1.5 2.2 2.6 4.7 1.1 2.4 1.8 5l88.1 269.7h356.6l88.1-269.7q.7-2.6 1.9-5 1.1-2.4 2.6-4.7 1.4-2.2 3.2-4.2 1.8-2 3.9-3.7c2.8-2.2 5.9-3.9 9.2-5.2 3.4-1.2 6.9-1.9 10.4-2.1 3.6-.2 7.1.1 10.6 1 3.4.9 6.7 2.3 9.7 4.2q2.3 1.4 4.3 3.2 2 1.7 3.7 3.8 1.7 2.1 3.1 4.4 1.3 2.3 2.3 4.8l130.5 340.6 1.3 3.5c9.3 24.3 14.6 50 15.7 76.1z" fill="#e24329"/><path d="m959 442.5c1.1 26-2 52.1-9.2 77.2s-18.4 48.9-33.2 70.4-32.9 40.5-53.7 56.2l-.5.4-199.9 149.8s-84.9-64.1-182.5-138l286.5-216.8c12.9-9.7 26.4-18.6 40.3-26.8 13.9-8.3 28.3-15.7 43-22.3 14.8-6.6 29.9-12.5 45.2-17.4 15.4-5 31-9.1 46.9-12.4l1.3 3.5c9.3 24.4 14.6 50.1 15.8 76.2z" fill="#fc6d26"/><path d="m480 658.5c97.6 73.7 182.6 138 182.6 138l-98.3 74.5-59.9 45.2c-3.5 2.7-7.4 4.7-11.5 6.1s-8.5 2.1-12.9 2.1c-4.3 0-8.7-.7-12.8-2.1s-8-3.4-11.5-6.1l-59.9-45.2-98.3-74.5s84.9-64.3 182.5-138z" fill="#fca326"/><path d="m480 658.3c-97.7 73.9-182.5 138-182.5 138l-198.7-148.9-1.2-.8-.4-.4c-20.9-15.7-39-34.7-53.8-56.2s-26-45.3-33.2-70.4c-7.2-25.1-10.3-51.2-9.2-77.3 1.2-26.1 6.5-51.8 15.8-76.2l1.3-3.5c15.9 3.3 31.5 7.4 46.9 12.4 15.3 5 30.4 10.8 45.2 17.5 14.7 6.6 29.1 14.1 43 22.3s27.3 17.2 40.3 26.9z" fill="#fc6d26"/>
</symbol>

<symbol id="grafana" fill="#f05a28" fill-rule="evenodd" clip-rule="evenodd" viewBox="0 -25 135 135">
<path class="st1" d="M122.9,49.9c-0.2-1.9-0.5-4.1-1.1-6.5c-0.6-2.4-1.6-5-2.9-7.8c-1.4-2.7-3.1-5.6-5.4-8.3c-0.9-1.1-1.9-2.1-2.9-3.2c1.6-6.3-1.9-11.8-1.9-11.8c-6.1-0.4-9.9,1.9-11.3,2.9c-0.2-0.1-0.5-0.2-0.7-0.3c-1-0.4-2.1-0.8-3.2-1.2c-1.1-0.3-2.2-0.7-3.3-0.9c-1.1-0.3-2.3-0.5-3.5-0.7c-0.2,0-0.4-0.1-0.6-0.1C83.5,3.6,75.9,0,75.9,0c-8.7,5.6-10.4,13.1-10.4,13.1s0,0.2-0.1,0.4c-0.5,0.1-0.9,0.3-1.4,0.4c-0.6,0.2-1.3,0.4-1.9,0.7c-0.6,0.3-1.3,0.5-1.9,0.8c-1.3,0.6-2.5,1.2-3.8,1.9c-1.2,0.7-2.4,1.4-3.5,2.2c-0.2-0.1-0.3-0.2-0.3-0.2c-11.7-4.5-22.1,0.9-22.1,0.9c-0.9,12.5,4.7,20.3,5.8,21.7c-0.3,0.8-0.5,1.5-0.8,2.3c-0.9,2.8-1.5,5.7-1.9,8.7c-0.1,0.4-0.1,0.9-0.2,1.3c-10.8,5.3-14,16.3-14,16.3c9,10.4,19.6,11,19.6,11l0,0c1.3,2.4,2.9,4.7,4.6,6.8c0.7,0.9,1.5,1.7,2.3,2.6c-3.3,9.4,0.5,17.3,0.5,17.3c10.1,0.4,16.7-4.4,18.1-5.5c1,0.3,2,0.6,3,0.9c3.1,0.8,6.3,1.3,9.4,1.4c0.8,0,1.6,0,2.4,0h0.4H80h0.5H81l0,0c4.7,6.8,13.1,7.7,13.1,7.7c5.9-6.3,6.3-12.4,6.3-13.8l0,0c0,0,0,0,0-0.1s0-0.2,0-0.2l0,0c0-0.1,0-0.2,0-0.3c1.2-0.9,2.4-1.8,3.6-2.8c2.4-2.1,4.4-4.6,6.2-7.2c0.2-0.2,0.3-0.5,0.5-0.7c6.7,0.4,11.4-4.2,11.4-4.2c-1.1-7-5.1-10.4-5.9-11l0,0c0,0,0,0-0.1-0.1l-0.1-0.1l0,0l-0.1-0.1c0-0.4,0.1-0.8,0.1-1.3c0.1-0.8,0.1-1.5,0.1-2.3v-0.6v-0.3v-0.1c0-0.2,0-0.1,0-0.2v-0.5v-0.6c0-0.2,0-0.4,0-0.6s0-0.4-0.1-0.6l-0.1-0.6l-0.1-0.6c-0.1-0.8-0.3-1.5-0.4-2.3c-0.7-3-1.9-5.9-3.4-8.4c-1.6-2.6-3.5-4.8-5.7-6.8c-2.2-1.9-4.6-3.5-7.2-4.6c-2.6-1.2-5.2-1.9-7.9-2.2c-1.3-0.2-2.7-0.2-4-0.2h-0.5h-0.1h-0.2h-0.2h-0.5c-0.2,0-0.4,0-0.5,0c-0.7,0.1-1.4,0.2-2,0.3c-2.7,0.5-5.2,1.5-7.4,2.8c-2.2,1.3-4.1,3-5.7,4.9s-2.8,3.9-3.6,6.1c-0.8,2.1-1.3,4.4-1.4,6.5c0,0.5,0,1.1,0,1.6c0,0.1,0,0.3,0,0.4v0.4c0,0.3,0,0.5,0.1,0.8c0.1,1.1,0.3,2.1,0.6,3.1c0.6,2,1.5,3.8,2.7,5.4s2.5,2.8,4,3.8s3,1.7,4.6,2.2c1.6,0.5,3.1,0.7,4.5,0.6c0.2,0,0.4,0,0.5,0c0.1,0,0.2,0,0.3,0s0.2,0,0.3,0c0.2,0,0.3,0,0.5,0h0.1h0.1c0.1,0,0.2,0,0.3,0c0.2,0,0.4-0.1,0.5-0.1c0.2,0,0.3-0.1,0.5-0.1c0.3-0.1,0.7-0.2,1-0.3c0.6-0.2,1.2-0.5,1.8-0.7c0.6-0.3,1.1-0.6,1.5-0.9c0.1-0.1,0.3-0.2,0.4-0.3c0.5-0.4,0.6-1.1,0.2-1.6c-0.4-0.4-1-0.5-1.5-0.3C88,74,87.9,74,87.7,74.1c-0.4,0.2-0.9,0.4-1.3,0.5c-0.5,0.1-1,0.3-1.5,0.4c-0.3,0-0.5,0.1-0.8,0.1c-0.1,0-0.3,0-0.4,0c-0.1,0-0.3,0-0.4,0s-0.3,0-0.4,0c-0.2,0-0.3,0-0.5,0c0,0-0.1,0,0,0h-0.1h-0.1c-0.1,0-0.1,0-0.2,0s-0.3,0-0.4-0.1c-1.1-0.2-2.3-0.5-3.4-1c-1.1-0.5-2.2-1.2-3.1-2.1c-1-0.9-1.8-1.9-2.5-3.1c-0.7-1.2-1.1-2.5-1.3-3.8c-0.1-0.7-0.2-1.4-0.1-2.1c0-0.2,0-0.4,0-0.6c0,0.1,0,0,0,0v-0.1v-0.1c0-0.1,0-0.2,0-0.3c0-0.4,0.1-0.7,0.2-1.1c0.5-3,2-5.9,4.3-8.1c0.6-0.6,1.2-1.1,1.9-1.5c0.7-0.5,1.4-0.9,2.1-1.2c0.7-0.3,1.5-0.6,2.3-0.8s1.6-0.4,2.4-0.4c0.4,0,0.8-0.1,1.2-0.1c0.1,0,0.2,0,0.3,0h0.3h0.2c0.1,0,0,0,0,0h0.1h0.3c0.9,0.1,1.8,0.2,2.6,0.4c1.7,0.4,3.4,1,5,1.9c3.2,1.8,5.9,4.5,7.5,7.8c0.8,1.6,1.4,3.4,1.7,5.3c0.1,0.5,0.1,0.9,0.2,1.4v0.3V66c0,0.1,0,0.2,0,0.3c0,0.1,0,0.2,0,0.3v0.3v0.3c0,0.2,0,0.6,0,0.8c0,0.5-0.1,1-0.1,1.5c-0.1,0.5-0.1,1-0.2,1.5s-0.2,1-0.3,1.5c-0.2,1-0.6,1.9-0.9,2.9c-0.7,1.9-1.7,3.7-2.9,5.3c-2.4,3.3-5.7,6-9.4,7.7c-1.9,0.8-3.8,1.5-5.8,1.8c-1,0.2-2,0.3-3,0.3H81h-0.2h-0.3H80h-0.3c0.1,0,0,0,0,0h-0.1c-0.5,0-1.1,0-1.6-0.1c-2.2-0.2-4.3-0.6-6.4-1.2c-2.1-0.6-4.1-1.4-6-2.4c-3.8-2-7.2-4.9-9.9-8.2c-1.3-1.7-2.5-3.5-3.5-5.4s-1.7-3.9-2.3-5.9c-0.6-2-0.9-4.1-1-6.2v-0.4v-0.1v-0.1v-0.2V60v-0.1v-0.1v-0.2v-0.5V59l0,0v-0.2c0-0.3,0-0.5,0-0.8c0-1,0.1-2.1,0.3-3.2c0.1-1.1,0.3-2.1,0.5-3.2c0.2-1.1,0.5-2.1,0.8-3.2c0.6-2.1,1.3-4.1,2.2-6c1.8-3.8,4.1-7.2,6.8-9.9c0.7-0.7,1.4-1.3,2.2-1.9c0.3-0.3,1-0.9,1.8-1.4c0.8-0.5,1.6-1,2.5-1.4c0.4-0.2,0.8-0.4,1.3-0.6c0.2-0.1,0.4-0.2,0.7-0.3c0.2-0.1,0.4-0.2,0.7-0.3c0.9-0.4,1.8-0.7,2.7-1c0.2-0.1,0.5-0.1,0.7-0.2c0.2-0.1,0.5-0.1,0.7-0.2c0.5-0.1,0.9-0.2,1.4-0.4c0.2-0.1,0.5-0.1,0.7-0.2c0.2,0,0.5-0.1,0.7-0.1c0.2,0,0.5-0.1,0.7-0.1l0.4-0.1l0.4-0.1c0.2,0,0.5-0.1,0.7-0.1c0.3,0,0.5-0.1,0.8-0.1c0.2,0,0.6-0.1,0.8-0.1c0.2,0,0.3,0,0.5-0.1h0.3h0.2h0.2c0.3,0,0.5,0,0.8-0.1h0.4c0,0,0.1,0,0,0h0.1h0.2c0.2,0,0.5,0,0.7,0c0.9,0,1.8,0,2.7,0c1.8,0.1,3.6,0.3,5.3,0.6c3.4,0.6,6.7,1.7,9.6,3.2c2.9,1.4,5.6,3.2,7.8,5.1c0.1,0.1,0.3,0.2,0.4,0.4c0.1,0.1,0.3,0.2,0.4,0.4c0.3,0.2,0.5,0.5,0.8,0.7c0.3,0.2,0.5,0.5,0.8,0.7c0.2,0.3,0.5,0.5,0.7,0.8c1,1,1.9,2.1,2.7,3.1c1.6,2.1,2.9,4.2,3.9,6.2c0.1,0.1,0.1,0.2,0.2,0.4c0.1,0.1,0.1,0.2,0.2,0.4s0.2,0.5,0.4,0.7c0.1,0.2,0.2,0.5,0.3,0.7c0.1,0.2,0.2,0.5,0.3,0.7c0.4,0.9,0.7,1.8,1,2.7c0.5,1.4,0.8,2.6,1.1,3.6c0.1,0.4,0.5,0.7,0.9,0.7c0.5,0,0.8-0.4,0.8-0.9C123,52.7,123,51.4,122.9,49.9z"/>
</symbol>

</svg>

